<svg xmlns="http://www.w3.org/2000/svg" xmlns:xlink="http://www.w3.org/1999/xlink" width="200" zoomAndPan="magnify" viewBox="0 0 150 30.000001" height="40" preserveAspectRatio="xMidYMid meet" version="1.0"><defs><g/></defs><g fill="#000000" fill-opacity="1"><g transform="translate(10.44751, 21.048389)"><g><path d="M 3.8125 0.09375 C 3.65625 0.09375 3.53125 0.078125 3.4375 0.046875 C 3.34375 0.015625 3.296875 -0.0351562 3.296875 -0.109375 C 3.296875 -0.191406 3.34375 -0.253906 3.4375 -0.296875 C 3.53125 -0.347656 3.679688 -0.390625 3.890625 -0.421875 C 4.335938 -0.503906 4.679688 -0.648438 4.921875 -0.859375 C 5.160156 -1.066406 5.28125 -1.382812 5.28125 -1.8125 L 5.28125 -8.734375 C 5.28125 -9.285156 5.265625 -9.703125 5.234375 -9.984375 C 5.210938 -10.273438 5.175781 -10.476562 5.125 -10.59375 C 5.070312 -10.71875 5 -10.785156 4.90625 -10.796875 C 4.738281 -10.835938 4.5625 -10.859375 4.375 -10.859375 C 4.1875 -10.867188 3.941406 -10.875 3.640625 -10.875 L 2.796875 -10.875 C 2.515625 -10.875 2.234375 -10.816406 1.953125 -10.703125 C 1.671875 -10.585938 1.46875 -10.414062 1.34375 -10.1875 C 1.300781 -10.125 1.238281 -10.035156 1.15625 -9.921875 C 1.070312 -9.804688 0.984375 -9.707031 0.890625 -9.625 C 0.796875 -9.539062 0.703125 -9.5 0.609375 -9.5 C 0.554688 -9.5 0.519531 -9.519531 0.5 -9.5625 C 0.488281 -9.613281 0.484375 -9.671875 0.484375 -9.734375 C 0.484375 -9.847656 0.515625 -9.96875 0.578125 -10.09375 C 0.734375 -10.4375 0.847656 -10.738281 0.921875 -11 C 1.003906 -11.269531 1.070312 -11.59375 1.125 -11.96875 C 1.144531 -12.164062 1.1875 -12.28125 1.25 -12.3125 C 1.320312 -12.351562 1.378906 -12.375 1.421875 -12.375 C 1.472656 -12.375 1.546875 -12.300781 1.640625 -12.15625 C 1.742188 -12.007812 1.820312 -11.890625 1.875 -11.796875 C 1.945312 -11.679688 2.109375 -11.59375 2.359375 -11.53125 C 2.617188 -11.476562 2.875 -11.453125 3.125 -11.453125 L 9.390625 -11.453125 C 9.804688 -11.453125 10.144531 -11.472656 10.40625 -11.515625 C 10.664062 -11.566406 10.894531 -11.632812 11.09375 -11.71875 C 11.226562 -11.78125 11.34375 -11.851562 11.4375 -11.9375 C 11.53125 -12.019531 11.644531 -12.0625 11.78125 -12.0625 C 11.820312 -12.0625 11.851562 -12.015625 11.875 -11.921875 C 11.894531 -11.835938 11.90625 -11.75 11.90625 -11.65625 C 11.90625 -11.601562 11.894531 -11.519531 11.875 -11.40625 C 11.863281 -11.300781 11.851562 -11.21875 11.84375 -11.15625 C 11.800781 -10.945312 11.765625 -10.789062 11.734375 -10.6875 C 11.710938 -10.59375 11.691406 -10.507812 11.671875 -10.4375 C 11.660156 -10.375 11.65625 -10.265625 11.65625 -10.109375 L 11.65625 -9.890625 C 11.65625 -9.785156 11.628906 -9.664062 11.578125 -9.53125 C 11.535156 -9.394531 11.46875 -9.328125 11.375 -9.328125 C 11.289062 -9.328125 11.222656 -9.390625 11.171875 -9.515625 C 11.128906 -9.648438 11.082031 -9.832031 11.03125 -10.0625 C 10.988281 -10.300781 10.847656 -10.492188 10.609375 -10.640625 C 10.367188 -10.796875 9.960938 -10.875 9.390625 -10.875 L 7.59375 -10.875 C 7.332031 -10.875 7.132812 -10.835938 7 -10.765625 C 6.875 -10.691406 6.789062 -10.515625 6.75 -10.234375 C 6.71875 -9.953125 6.703125 -9.484375 6.703125 -8.828125 L 6.703125 -1.8125 C 6.703125 -1.382812 6.828125 -1.066406 7.078125 -0.859375 C 7.328125 -0.648438 7.671875 -0.503906 8.109375 -0.421875 C 8.316406 -0.390625 8.46875 -0.347656 8.5625 -0.296875 C 8.65625 -0.253906 8.703125 -0.191406 8.703125 -0.109375 C 8.703125 -0.0351562 8.65625 0.015625 8.5625 0.046875 C 8.46875 0.078125 8.34375 0.09375 8.1875 0.09375 C 7.863281 0.09375 7.597656 0.0820312 7.390625 0.0625 C 7.179688 0.0390625 6.976562 0.0234375 6.78125 0.015625 C 6.59375 0.00390625 6.363281 0 6.09375 0 C 5.800781 0 5.539062 0.00390625 5.3125 0.015625 C 5.09375 0.0234375 4.867188 0.0390625 4.640625 0.0625 C 4.410156 0.0820312 4.132812 0.09375 3.8125 0.09375 Z M 3.8125 0.09375 "/></g></g></g><g fill="#000000" fill-opacity="1"><g transform="translate(23.569348, 21.048389)"><g><path d="M 0.6875 0.046875 C 0.457031 0.046875 0.34375 -0.015625 0.34375 -0.140625 C 0.34375 -0.242188 0.476562 -0.335938 0.75 -0.421875 C 0.925781 -0.484375 1.09375 -0.5625 1.25 -0.65625 C 1.414062 -0.75 1.503906 -0.914062 1.515625 -1.15625 L 1.515625 -10.09375 C 1.515625 -10.414062 1.457031 -10.695312 1.34375 -10.9375 C 1.238281 -11.175781 1.035156 -11.320312 0.734375 -11.375 C 0.628906 -11.394531 0.578125 -11.476562 0.578125 -11.625 C 0.578125 -11.726562 0.625 -11.800781 0.71875 -11.84375 C 0.882812 -11.894531 1.082031 -11.957031 1.3125 -12.03125 C 1.539062 -12.101562 1.78125 -12.179688 2.03125 -12.265625 C 2.28125 -12.359375 2.5 -12.445312 2.6875 -12.53125 C 2.738281 -12.550781 2.773438 -12.5625 2.796875 -12.5625 C 2.835938 -12.5625 2.867188 -12.550781 2.890625 -12.53125 C 2.910156 -12.507812 2.921875 -12.476562 2.921875 -12.4375 C 2.921875 -12.375 2.90625 -12.273438 2.875 -12.140625 C 2.84375 -12.003906 2.816406 -11.773438 2.796875 -11.453125 C 2.773438 -11.140625 2.765625 -10.660156 2.765625 -10.015625 L 2.765625 -6.921875 C 2.765625 -6.722656 2.769531 -6.582031 2.78125 -6.5 C 2.800781 -6.414062 2.835938 -6.332031 2.890625 -6.25 C 3.078125 -6.394531 3.3125 -6.550781 3.59375 -6.71875 C 3.875 -6.894531 4.1875 -7.046875 4.53125 -7.171875 C 4.875 -7.304688 5.226562 -7.375 5.59375 -7.375 C 6.175781 -7.375 6.660156 -7.144531 7.046875 -6.6875 C 7.429688 -6.238281 7.625 -5.660156 7.625 -4.953125 L 7.625 -1.21875 C 7.625 -0.976562 7.703125 -0.800781 7.859375 -0.6875 C 8.015625 -0.570312 8.179688 -0.484375 8.359375 -0.421875 C 8.492188 -0.390625 8.59375 -0.351562 8.65625 -0.3125 C 8.726562 -0.269531 8.765625 -0.210938 8.765625 -0.140625 C 8.765625 -0.015625 8.648438 0.046875 8.421875 0.046875 C 8.179688 0.046875 8 0.0351562 7.875 0.015625 C 7.75 0.00390625 7.628906 -0.00390625 7.515625 -0.015625 C 7.398438 -0.0234375 7.238281 -0.03125 7.03125 -0.03125 C 6.820312 -0.03125 6.65625 -0.0234375 6.53125 -0.015625 C 6.414062 -0.00390625 6.296875 0.00390625 6.171875 0.015625 C 6.046875 0.0351562 5.867188 0.046875 5.640625 0.046875 C 5.398438 0.046875 5.28125 -0.015625 5.28125 -0.140625 C 5.28125 -0.222656 5.3125 -0.28125 5.375 -0.3125 C 5.445312 -0.34375 5.550781 -0.378906 5.6875 -0.421875 C 5.863281 -0.484375 6.019531 -0.570312 6.15625 -0.6875 C 6.300781 -0.800781 6.375 -0.976562 6.375 -1.21875 L 6.375 -4.84375 C 6.375 -5.144531 6.285156 -5.414062 6.109375 -5.65625 C 5.941406 -5.90625 5.734375 -6.097656 5.484375 -6.234375 C 5.234375 -6.378906 4.976562 -6.453125 4.71875 -6.453125 C 4.5 -6.453125 4.238281 -6.414062 3.9375 -6.34375 C 3.644531 -6.28125 3.414062 -6.1875 3.25 -6.0625 C 3.050781 -5.90625 2.921875 -5.742188 2.859375 -5.578125 C 2.796875 -5.410156 2.765625 -5.144531 2.765625 -4.78125 L 2.765625 -1.15625 C 2.773438 -0.914062 2.847656 -0.75 2.984375 -0.65625 C 3.117188 -0.5625 3.273438 -0.484375 3.453125 -0.421875 C 3.585938 -0.390625 3.6875 -0.351562 3.75 -0.3125 C 3.8125 -0.269531 3.84375 -0.210938 3.84375 -0.140625 C 3.84375 -0.015625 3.726562 0.046875 3.5 0.046875 C 3.257812 0.046875 3.078125 0.0351562 2.953125 0.015625 C 2.835938 0.00390625 2.722656 -0.00390625 2.609375 -0.015625 C 2.503906 -0.0234375 2.347656 -0.03125 2.140625 -0.03125 C 1.941406 -0.03125 1.78125 -0.0234375 1.65625 -0.015625 C 1.53125 -0.00390625 1.394531 0.00390625 1.25 0.015625 C 1.113281 0.0351562 0.925781 0.046875 0.6875 0.046875 Z M 0.6875 0.046875 "/></g></g></g><g fill="#000000" fill-opacity="1"><g transform="translate(33.927891, 21.048389)"><g><path d="M 0.78125 0.046875 C 0.675781 0.046875 0.585938 0.03125 0.515625 0 C 0.453125 -0.0195312 0.421875 -0.0664062 0.421875 -0.140625 C 0.421875 -0.234375 0.460938 -0.296875 0.546875 -0.328125 C 0.640625 -0.367188 0.738281 -0.398438 0.84375 -0.421875 C 1.09375 -0.484375 1.28125 -0.554688 1.40625 -0.640625 C 1.539062 -0.734375 1.609375 -0.890625 1.609375 -1.109375 L 1.609375 -4.96875 C 1.609375 -5.289062 1.550781 -5.578125 1.4375 -5.828125 C 1.320312 -6.078125 1.109375 -6.226562 0.796875 -6.28125 C 0.742188 -6.289062 0.703125 -6.3125 0.671875 -6.34375 C 0.640625 -6.382812 0.625 -6.4375 0.625 -6.5 C 0.625 -6.632812 0.675781 -6.707031 0.78125 -6.71875 C 1.257812 -6.820312 1.648438 -6.96875 1.953125 -7.15625 C 2.265625 -7.34375 2.5 -7.492188 2.65625 -7.609375 C 2.757812 -7.691406 2.84375 -7.734375 2.90625 -7.734375 C 2.976562 -7.734375 3.015625 -7.703125 3.015625 -7.640625 C 3.015625 -7.546875 3 -7.359375 2.96875 -7.078125 C 2.9375 -6.804688 2.910156 -6.5 2.890625 -6.15625 C 2.867188 -5.820312 2.859375 -5.515625 2.859375 -5.234375 L 2.859375 -1.109375 C 2.859375 -0.898438 2.925781 -0.75 3.0625 -0.65625 C 3.195312 -0.5625 3.382812 -0.484375 3.625 -0.421875 C 3.71875 -0.398438 3.804688 -0.367188 3.890625 -0.328125 C 3.984375 -0.296875 4.03125 -0.234375 4.03125 -0.140625 C 4.03125 -0.015625 3.910156 0.046875 3.671875 0.046875 C 3.441406 0.046875 3.257812 0.0351562 3.125 0.015625 C 2.988281 0.00390625 2.859375 -0.00390625 2.734375 -0.015625 C 2.609375 -0.0234375 2.441406 -0.03125 2.234375 -0.03125 C 2.023438 -0.03125 1.851562 -0.0234375 1.71875 -0.015625 C 1.59375 -0.00390625 1.460938 0.00390625 1.328125 0.015625 C 1.203125 0.0351562 1.019531 0.046875 0.78125 0.046875 Z M 1.78125 -9.203125 C 1.53125 -9.203125 1.316406 -9.285156 1.140625 -9.453125 C 0.972656 -9.628906 0.890625 -9.84375 0.890625 -10.09375 C 0.890625 -10.351562 0.972656 -10.566406 1.140625 -10.734375 C 1.316406 -10.910156 1.53125 -11 1.78125 -11 C 2.039062 -11 2.253906 -10.910156 2.421875 -10.734375 C 2.597656 -10.566406 2.6875 -10.351562 2.6875 -10.09375 C 2.6875 -9.84375 2.597656 -9.628906 2.421875 -9.453125 C 2.253906 -9.285156 2.039062 -9.203125 1.78125 -9.203125 Z M 1.78125 -9.203125 "/></g></g></g><g fill="#000000" fill-opacity="1"><g transform="translate(39.47296, 21.048389)"><g><path d="M 0.78125 0.046875 C 0.675781 0.046875 0.585938 0.03125 0.515625 0 C 0.453125 -0.0195312 0.421875 -0.0664062 0.421875 -0.140625 C 0.421875 -0.234375 0.457031 -0.296875 0.53125 -0.328125 C 0.601562 -0.359375 0.707031 -0.390625 0.84375 -0.421875 C 1.019531 -0.472656 1.191406 -0.539062 1.359375 -0.625 C 1.523438 -0.707031 1.609375 -0.867188 1.609375 -1.109375 L 1.609375 -4.9375 C 1.609375 -5.257812 1.570312 -5.53125 1.5 -5.75 C 1.4375 -5.976562 1.25 -6.132812 0.9375 -6.21875 C 0.894531 -6.238281 0.851562 -6.265625 0.8125 -6.296875 C 0.78125 -6.328125 0.765625 -6.378906 0.765625 -6.453125 C 0.765625 -6.585938 0.816406 -6.660156 0.921875 -6.671875 C 1.335938 -6.773438 1.675781 -6.90625 1.9375 -7.0625 C 2.195312 -7.21875 2.453125 -7.390625 2.703125 -7.578125 C 2.742188 -7.597656 2.78125 -7.617188 2.8125 -7.640625 C 2.84375 -7.660156 2.875 -7.671875 2.90625 -7.671875 C 2.925781 -7.671875 2.945312 -7.65625 2.96875 -7.625 C 2.988281 -7.601562 3 -7.578125 3 -7.546875 C 3 -7.460938 2.984375 -7.289062 2.953125 -7.03125 C 2.921875 -6.78125 2.90625 -6.570312 2.90625 -6.40625 C 2.90625 -6.351562 2.90625 -6.304688 2.90625 -6.265625 C 2.914062 -6.222656 2.925781 -6.195312 2.9375 -6.1875 C 3.351562 -6.582031 3.796875 -6.878906 4.265625 -7.078125 C 4.734375 -7.273438 5.25 -7.375 5.8125 -7.375 C 6.394531 -7.375 6.875 -7.132812 7.25 -6.65625 C 7.632812 -6.1875 7.828125 -5.601562 7.828125 -4.90625 L 7.828125 -1.109375 C 7.828125 -0.867188 7.910156 -0.707031 8.078125 -0.625 C 8.242188 -0.550781 8.414062 -0.484375 8.59375 -0.421875 C 8.6875 -0.390625 8.773438 -0.351562 8.859375 -0.3125 C 8.953125 -0.269531 9 -0.203125 9 -0.109375 C 9 -0.0351562 8.957031 0.00390625 8.875 0.015625 C 8.789062 0.0351562 8.710938 0.046875 8.640625 0.046875 C 8.410156 0.046875 8.226562 0.0351562 8.09375 0.015625 C 7.957031 0.00390625 7.832031 -0.00390625 7.71875 -0.015625 C 7.601562 -0.0234375 7.4375 -0.03125 7.21875 -0.03125 C 7.019531 -0.03125 6.851562 -0.0234375 6.71875 -0.015625 C 6.59375 -0.00390625 6.457031 0.00390625 6.3125 0.015625 C 6.175781 0.0351562 5.992188 0.046875 5.765625 0.046875 C 5.703125 0.046875 5.625 0.0351562 5.53125 0.015625 C 5.445312 0.00390625 5.40625 -0.0351562 5.40625 -0.109375 C 5.40625 -0.203125 5.445312 -0.269531 5.53125 -0.3125 C 5.625 -0.351562 5.71875 -0.390625 5.8125 -0.421875 C 5.988281 -0.484375 6.160156 -0.550781 6.328125 -0.625 C 6.492188 -0.707031 6.578125 -0.867188 6.578125 -1.109375 L 6.578125 -4.84375 C 6.578125 -5.375 6.429688 -5.78125 6.140625 -6.0625 C 5.847656 -6.351562 5.457031 -6.507812 4.96875 -6.53125 C 4.539062 -6.53125 4.164062 -6.457031 3.84375 -6.3125 C 3.53125 -6.175781 3.25 -6.007812 3 -5.8125 C 2.945312 -5.757812 2.910156 -5.695312 2.890625 -5.625 C 2.867188 -5.550781 2.859375 -5.476562 2.859375 -5.40625 L 2.859375 -1.109375 C 2.859375 -0.867188 2.941406 -0.707031 3.109375 -0.625 C 3.273438 -0.539062 3.445312 -0.472656 3.625 -0.421875 C 3.894531 -0.359375 4.03125 -0.265625 4.03125 -0.140625 C 4.03125 -0.0664062 4 -0.0195312 3.9375 0 C 3.875 0.03125 3.785156 0.046875 3.671875 0.046875 C 3.429688 0.046875 3.242188 0.0351562 3.109375 0.015625 C 2.972656 0.00390625 2.84375 -0.00390625 2.71875 -0.015625 C 2.601562 -0.0234375 2.441406 -0.03125 2.234375 -0.03125 C 2.023438 -0.03125 1.859375 -0.0234375 1.734375 -0.015625 C 1.609375 -0.00390625 1.476562 0.00390625 1.34375 0.015625 C 1.207031 0.0351562 1.019531 0.046875 0.78125 0.046875 Z M 0.78125 0.046875 "/></g></g></g><g fill="#000000" fill-opacity="1"><g transform="translate(50.063268, 21.048389)"><g><path d="M 0.75 0.046875 C 0.476562 0.046875 0.34375 -0.015625 0.34375 -0.140625 C 0.34375 -0.234375 0.382812 -0.296875 0.46875 -0.328125 C 0.5625 -0.359375 0.65625 -0.390625 0.75 -0.421875 C 0.925781 -0.484375 1.097656 -0.5625 1.265625 -0.65625 C 1.429688 -0.75 1.515625 -0.914062 1.515625 -1.15625 L 1.515625 -10.09375 C 1.515625 -10.507812 1.453125 -10.8125 1.328125 -11 C 1.210938 -11.1875 1.007812 -11.316406 0.71875 -11.390625 C 0.601562 -11.410156 0.546875 -11.488281 0.546875 -11.625 C 0.546875 -11.738281 0.59375 -11.8125 0.6875 -11.84375 C 1 -11.90625 1.269531 -11.972656 1.5 -12.046875 C 1.726562 -12.128906 1.929688 -12.207031 2.109375 -12.28125 C 2.296875 -12.363281 2.476562 -12.441406 2.65625 -12.515625 C 2.726562 -12.546875 2.78125 -12.5625 2.8125 -12.5625 C 2.851562 -12.5625 2.878906 -12.550781 2.890625 -12.53125 C 2.910156 -12.507812 2.921875 -12.46875 2.921875 -12.40625 C 2.921875 -12.289062 2.894531 -12.050781 2.84375 -11.6875 C 2.789062 -11.332031 2.765625 -10.773438 2.765625 -10.015625 L 2.765625 -4.171875 C 2.765625 -4.066406 2.796875 -4.015625 2.859375 -4.015625 C 2.921875 -4.015625 3.007812 -4.039062 3.125 -4.09375 C 3.238281 -4.15625 3.363281 -4.25 3.5 -4.375 C 3.976562 -4.78125 4.378906 -5.15625 4.703125 -5.5 C 5.035156 -5.84375 5.265625 -6.078125 5.390625 -6.203125 C 5.441406 -6.273438 5.476562 -6.332031 5.5 -6.375 C 5.53125 -6.414062 5.546875 -6.445312 5.546875 -6.46875 C 5.546875 -6.53125 5.492188 -6.582031 5.390625 -6.625 C 5.285156 -6.675781 5.179688 -6.710938 5.078125 -6.734375 C 4.929688 -6.773438 4.859375 -6.835938 4.859375 -6.921875 C 4.859375 -6.972656 4.894531 -7.019531 4.96875 -7.0625 C 5.039062 -7.101562 5.140625 -7.125 5.265625 -7.125 L 6.140625 -7.125 C 6.328125 -7.125 6.523438 -7.140625 6.734375 -7.171875 C 6.941406 -7.210938 7.132812 -7.25 7.3125 -7.28125 C 7.5 -7.320312 7.644531 -7.34375 7.75 -7.34375 C 7.914062 -7.34375 8 -7.285156 8 -7.171875 C 8 -7.097656 7.957031 -7.035156 7.875 -6.984375 C 7.789062 -6.929688 7.6875 -6.882812 7.5625 -6.84375 C 7.332031 -6.78125 7.117188 -6.695312 6.921875 -6.59375 C 6.722656 -6.488281 6.539062 -6.390625 6.375 -6.296875 C 6.3125 -6.242188 6.148438 -6.113281 5.890625 -5.90625 C 5.640625 -5.695312 5.347656 -5.457031 5.015625 -5.1875 C 4.691406 -4.914062 4.382812 -4.65625 4.09375 -4.40625 C 4.03125 -4.332031 4 -4.269531 4 -4.21875 C 4 -4.207031 4.003906 -4.191406 4.015625 -4.171875 C 4.023438 -4.148438 4.035156 -4.125 4.046875 -4.09375 C 4.359375 -3.71875 4.691406 -3.332031 5.046875 -2.9375 C 5.398438 -2.550781 5.726562 -2.207031 6.03125 -1.90625 C 6.332031 -1.613281 6.546875 -1.40625 6.671875 -1.28125 C 6.867188 -1.09375 7.09375 -0.921875 7.34375 -0.765625 C 7.601562 -0.617188 7.820312 -0.519531 8 -0.46875 C 8.132812 -0.414062 8.257812 -0.367188 8.375 -0.328125 C 8.488281 -0.296875 8.546875 -0.234375 8.546875 -0.140625 C 8.546875 -0.015625 8.425781 0.046875 8.1875 0.046875 C 7.71875 0.046875 7.195312 0.0351562 6.625 0.015625 C 6.050781 0.00390625 5.457031 0 4.84375 0 C 4.632812 0 4.53125 -0.0507812 4.53125 -0.15625 C 4.53125 -0.226562 4.554688 -0.285156 4.609375 -0.328125 C 4.671875 -0.378906 4.742188 -0.421875 4.828125 -0.453125 C 4.960938 -0.492188 5.078125 -0.539062 5.171875 -0.59375 C 5.265625 -0.65625 5.3125 -0.742188 5.3125 -0.859375 C 5.3125 -0.890625 5.296875 -0.925781 5.265625 -0.96875 C 5.242188 -1.007812 5.21875 -1.054688 5.1875 -1.109375 L 3.03125 -3.546875 C 2.957031 -3.628906 2.898438 -3.671875 2.859375 -3.671875 C 2.796875 -3.671875 2.765625 -3.628906 2.765625 -3.546875 C 2.753906 -3.378906 2.75 -3.195312 2.75 -3 C 2.75 -2.800781 2.75 -2.601562 2.75 -2.40625 C 2.75 -2.207031 2.75 -2 2.75 -1.78125 C 2.75 -1.570312 2.753906 -1.363281 2.765625 -1.15625 C 2.765625 -0.914062 2.820312 -0.75 2.9375 -0.65625 C 3.0625 -0.5625 3.210938 -0.484375 3.390625 -0.421875 C 3.484375 -0.390625 3.570312 -0.359375 3.65625 -0.328125 C 3.75 -0.296875 3.796875 -0.234375 3.796875 -0.140625 C 3.796875 -0.0546875 3.738281 -0.00390625 3.625 0.015625 C 3.507812 0.0351562 3.429688 0.046875 3.390625 0.046875 C 3.160156 0.046875 2.992188 0.0351562 2.890625 0.015625 C 2.785156 0.00390625 2.6875 -0.00390625 2.59375 -0.015625 C 2.5 -0.0234375 2.347656 -0.03125 2.140625 -0.03125 C 1.941406 -0.03125 1.78125 -0.0234375 1.65625 -0.015625 C 1.539062 -0.00390625 1.421875 0.00390625 1.296875 0.015625 C 1.171875 0.0351562 0.988281 0.046875 0.75 0.046875 Z M 0.75 0.046875 "/></g></g></g><g fill="#000000" fill-opacity="1"><g transform="translate(59.601738, 21.048389)"><g/></g></g><g fill="#000000" fill-opacity="1"><g transform="translate(64.344564, 21.048389)"><g><path d="M 1.171875 0.09375 C 1.015625 0.09375 0.890625 0.078125 0.796875 0.046875 C 0.703125 0.015625 0.65625 -0.0351562 0.65625 -0.109375 C 0.65625 -0.253906 0.851562 -0.359375 1.25 -0.421875 C 1.695312 -0.503906 2.023438 -0.640625 2.234375 -0.828125 C 2.453125 -1.023438 2.5625 -1.335938 2.5625 -1.765625 L 2.5625 -9.78125 C 2.5625 -10.207031 2.472656 -10.507812 2.296875 -10.6875 C 2.128906 -10.875 1.820312 -11.007812 1.375 -11.09375 C 1.164062 -11.125 1.015625 -11.171875 0.921875 -11.234375 C 0.828125 -11.296875 0.78125 -11.367188 0.78125 -11.453125 C 0.78125 -11.515625 0.828125 -11.5625 0.921875 -11.59375 C 1.015625 -11.625 1.140625 -11.640625 1.296875 -11.640625 C 1.753906 -11.640625 2.140625 -11.632812 2.453125 -11.625 C 2.765625 -11.613281 3.070312 -11.601562 3.375 -11.59375 C 3.675781 -11.59375 4.035156 -11.59375 4.453125 -11.59375 C 4.847656 -11.59375 5.257812 -11.59375 5.6875 -11.59375 C 6.125 -11.601562 6.53125 -11.609375 6.90625 -11.609375 C 7.300781 -11.617188 7.640625 -11.625 7.921875 -11.625 C 8.203125 -11.632812 8.367188 -11.640625 8.421875 -11.640625 C 8.472656 -11.640625 8.535156 -11.628906 8.609375 -11.609375 C 8.679688 -11.585938 8.722656 -11.546875 8.734375 -11.484375 C 8.796875 -11.148438 8.851562 -10.816406 8.90625 -10.484375 C 8.96875 -10.160156 9 -9.878906 9 -9.640625 C 9 -9.535156 8.972656 -9.460938 8.921875 -9.421875 C 8.867188 -9.390625 8.8125 -9.375 8.75 -9.375 C 8.695312 -9.375 8.65625 -9.390625 8.625 -9.421875 C 8.601562 -9.453125 8.582031 -9.5 8.5625 -9.5625 C 8.5 -9.757812 8.4375 -9.945312 8.375 -10.125 C 8.320312 -10.3125 8.253906 -10.445312 8.171875 -10.53125 C 8.003906 -10.726562 7.816406 -10.859375 7.609375 -10.921875 C 7.410156 -10.984375 7.195312 -11.015625 6.96875 -11.015625 L 4.640625 -11.015625 C 4.546875 -11.015625 4.414062 -10.960938 4.25 -10.859375 C 4.082031 -10.753906 4 -10.617188 4 -10.453125 L 4 -6.671875 C 4 -6.554688 4.03125 -6.460938 4.09375 -6.390625 C 4.15625 -6.316406 4.226562 -6.28125 4.3125 -6.28125 L 6.078125 -6.28125 C 6.421875 -6.28125 6.65625 -6.34375 6.78125 -6.46875 C 6.914062 -6.59375 7.023438 -6.820312 7.109375 -7.15625 C 7.179688 -7.414062 7.289062 -7.546875 7.4375 -7.546875 C 7.476562 -7.546875 7.523438 -7.519531 7.578125 -7.46875 C 7.640625 -7.425781 7.671875 -7.351562 7.671875 -7.25 C 7.671875 -7.207031 7.664062 -7.101562 7.65625 -6.9375 C 7.644531 -6.769531 7.632812 -6.597656 7.625 -6.421875 C 7.613281 -6.242188 7.609375 -6.109375 7.609375 -6.015625 C 7.609375 -5.890625 7.609375 -5.726562 7.609375 -5.53125 C 7.617188 -5.332031 7.625 -5.144531 7.625 -4.96875 C 7.632812 -4.789062 7.640625 -4.679688 7.640625 -4.640625 C 7.640625 -4.554688 7.628906 -4.484375 7.609375 -4.421875 C 7.597656 -4.359375 7.554688 -4.328125 7.484375 -4.328125 C 7.304688 -4.328125 7.171875 -4.519531 7.078125 -4.90625 C 7.003906 -5.175781 6.90625 -5.375 6.78125 -5.5 C 6.664062 -5.632812 6.488281 -5.703125 6.25 -5.703125 L 4.59375 -5.703125 C 4.394531 -5.703125 4.242188 -5.675781 4.140625 -5.625 C 4.046875 -5.570312 4 -5.441406 4 -5.234375 L 4 -1.8125 C 4 -1.363281 4.09375 -1.050781 4.28125 -0.875 C 4.46875 -0.707031 4.765625 -0.625 5.171875 -0.625 L 6.484375 -0.625 C 6.867188 -0.625 7.1875 -0.644531 7.4375 -0.6875 C 7.695312 -0.726562 7.921875 -0.804688 8.109375 -0.921875 C 8.296875 -1.054688 8.460938 -1.226562 8.609375 -1.4375 C 8.765625 -1.65625 8.9375 -1.941406 9.125 -2.296875 C 9.164062 -2.367188 9.207031 -2.425781 9.25 -2.46875 C 9.300781 -2.519531 9.351562 -2.539062 9.40625 -2.53125 C 9.46875 -2.519531 9.515625 -2.492188 9.546875 -2.453125 C 9.585938 -2.410156 9.609375 -2.351562 9.609375 -2.28125 C 9.609375 -2.175781 9.578125 -1.988281 9.515625 -1.71875 C 9.460938 -1.445312 9.390625 -1.171875 9.296875 -0.890625 C 9.203125 -0.609375 9.125 -0.382812 9.0625 -0.21875 C 9.019531 -0.132812 8.984375 -0.0625 8.953125 0 C 8.929688 0.0625 8.882812 0.09375 8.8125 0.09375 C 8.238281 0.09375 7.707031 0.0820312 7.21875 0.0625 C 6.726562 0.0507812 6.265625 0.0390625 5.828125 0.03125 C 5.390625 0.0195312 4.957031 0.0078125 4.53125 0 C 4.113281 -0.0078125 3.679688 -0.015625 3.234375 -0.015625 C 2.960938 -0.015625 2.734375 -0.0078125 2.546875 0 C 2.359375 0.0195312 2.160156 0.0390625 1.953125 0.0625 C 1.753906 0.0820312 1.492188 0.09375 1.171875 0.09375 Z M 1.171875 0.09375 "/></g></g></g><g fill="#000000" fill-opacity="1"><g transform="translate(75.576667, 21.048389)"><g><path d="M 6.53125 0.34375 C 6.445312 0.34375 6.40625 0.296875 6.40625 0.203125 C 6.40625 0.078125 6.414062 -0.0976562 6.4375 -0.328125 C 6.46875 -0.554688 6.484375 -0.75 6.484375 -0.90625 C 6.484375 -0.925781 6.484375 -0.945312 6.484375 -0.96875 C 6.484375 -0.988281 6.484375 -1.003906 6.484375 -1.015625 C 6.023438 -0.566406 5.5625 -0.242188 5.09375 -0.046875 C 4.625 0.148438 4.109375 0.25 3.546875 0.25 C 3.171875 0.25 2.828125 0.164062 2.515625 0 C 2.203125 -0.15625 1.957031 -0.390625 1.78125 -0.703125 C 1.601562 -1.015625 1.515625 -1.40625 1.515625 -1.875 L 1.515625 -5.484375 C 1.515625 -5.753906 1.453125 -5.960938 1.328125 -6.109375 C 1.210938 -6.265625 1.019531 -6.394531 0.75 -6.5 C 0.6875 -6.53125 0.628906 -6.5625 0.578125 -6.59375 C 0.535156 -6.632812 0.515625 -6.703125 0.515625 -6.796875 C 0.515625 -6.898438 0.539062 -6.96875 0.59375 -7 C 0.644531 -7.039062 0.707031 -7.066406 0.78125 -7.078125 C 1.1875 -7.097656 1.5 -7.128906 1.71875 -7.171875 C 1.9375 -7.210938 2.210938 -7.273438 2.546875 -7.359375 C 2.585938 -7.367188 2.613281 -7.375 2.625 -7.375 C 2.644531 -7.375 2.664062 -7.375 2.6875 -7.375 C 2.820312 -7.375 2.882812 -7.289062 2.875 -7.125 C 2.832031 -6.851562 2.800781 -6.625 2.78125 -6.4375 C 2.769531 -6.257812 2.765625 -6.035156 2.765625 -5.765625 L 2.765625 -2.28125 C 2.765625 -2 2.832031 -1.734375 2.96875 -1.484375 C 3.113281 -1.242188 3.300781 -1.046875 3.53125 -0.890625 C 3.769531 -0.734375 4.015625 -0.65625 4.265625 -0.65625 C 4.566406 -0.65625 4.832031 -0.671875 5.0625 -0.703125 C 5.300781 -0.742188 5.535156 -0.847656 5.765625 -1.015625 C 5.890625 -1.109375 6.050781 -1.257812 6.25 -1.46875 C 6.457031 -1.6875 6.5625 -1.984375 6.5625 -2.359375 L 6.5625 -5.609375 C 6.5625 -5.859375 6.484375 -6.046875 6.328125 -6.171875 C 6.179688 -6.296875 6.015625 -6.378906 5.828125 -6.421875 C 5.640625 -6.472656 5.484375 -6.5 5.359375 -6.5 C 5.253906 -6.5 5.164062 -6.519531 5.09375 -6.5625 C 5.019531 -6.601562 4.984375 -6.6875 4.984375 -6.8125 C 4.984375 -6.914062 5.019531 -6.984375 5.09375 -7.015625 C 5.175781 -7.054688 5.265625 -7.078125 5.359375 -7.078125 C 5.734375 -7.085938 6.039062 -7.101562 6.28125 -7.125 C 6.53125 -7.144531 6.75 -7.175781 6.9375 -7.21875 C 7.132812 -7.257812 7.34375 -7.304688 7.5625 -7.359375 C 7.582031 -7.367188 7.609375 -7.378906 7.640625 -7.390625 C 7.679688 -7.398438 7.710938 -7.40625 7.734375 -7.40625 C 7.890625 -7.40625 7.96875 -7.335938 7.96875 -7.203125 C 7.96875 -7.191406 7.960938 -7.171875 7.953125 -7.140625 C 7.953125 -7.109375 7.945312 -7.078125 7.9375 -7.046875 C 7.925781 -7.003906 7.910156 -6.898438 7.890625 -6.734375 C 7.867188 -6.566406 7.847656 -6.394531 7.828125 -6.21875 C 7.816406 -6.039062 7.8125 -5.90625 7.8125 -5.8125 L 7.8125 -1.6875 C 7.8125 -1.375 7.84375 -1.144531 7.90625 -1 C 7.96875 -0.863281 8.039062 -0.796875 8.125 -0.796875 C 8.21875 -0.796875 8.359375 -0.804688 8.546875 -0.828125 C 8.734375 -0.847656 8.867188 -0.859375 8.953125 -0.859375 C 9.003906 -0.859375 9.0625 -0.84375 9.125 -0.8125 C 9.1875 -0.789062 9.21875 -0.726562 9.21875 -0.625 C 9.21875 -0.53125 9.191406 -0.46875 9.140625 -0.4375 C 9.097656 -0.40625 9.039062 -0.382812 8.96875 -0.375 C 8.5 -0.3125 8.097656 -0.21875 7.765625 -0.09375 C 7.441406 0.0195312 7.144531 0.128906 6.875 0.234375 C 6.84375 0.242188 6.789062 0.265625 6.71875 0.296875 C 6.644531 0.328125 6.582031 0.34375 6.53125 0.34375 Z M 6.53125 0.34375 "/></g></g></g><g fill="#000000" fill-opacity="1"><g transform="translate(86.149147, 21.048389)"><g><path d="M 0.875 0.046875 C 0.75 0.046875 0.65625 0.03125 0.59375 0 C 0.539062 -0.0195312 0.515625 -0.0664062 0.515625 -0.140625 C 0.515625 -0.234375 0.550781 -0.296875 0.625 -0.328125 C 0.695312 -0.359375 0.796875 -0.390625 0.921875 -0.421875 C 1.148438 -0.484375 1.320312 -0.570312 1.4375 -0.6875 C 1.550781 -0.800781 1.609375 -0.941406 1.609375 -1.109375 L 1.609375 -4.9375 C 1.609375 -5.257812 1.554688 -5.539062 1.453125 -5.78125 C 1.359375 -6.019531 1.164062 -6.164062 0.875 -6.21875 C 0.820312 -6.226562 0.773438 -6.253906 0.734375 -6.296875 C 0.703125 -6.347656 0.6875 -6.398438 0.6875 -6.453125 C 0.6875 -6.566406 0.742188 -6.640625 0.859375 -6.671875 C 1.160156 -6.765625 1.476562 -6.898438 1.8125 -7.078125 C 2.15625 -7.265625 2.425781 -7.421875 2.625 -7.546875 C 2.695312 -7.585938 2.753906 -7.617188 2.796875 -7.640625 C 2.835938 -7.660156 2.867188 -7.671875 2.890625 -7.671875 C 2.953125 -7.671875 2.984375 -7.628906 2.984375 -7.546875 C 2.984375 -7.503906 2.976562 -7.410156 2.96875 -7.265625 C 2.957031 -7.128906 2.945312 -6.960938 2.9375 -6.765625 C 2.9375 -6.578125 2.929688 -6.390625 2.921875 -6.203125 C 2.921875 -6.179688 2.929688 -6.171875 2.953125 -6.171875 C 3.148438 -6.410156 3.363281 -6.617188 3.59375 -6.796875 C 3.820312 -6.972656 4.054688 -7.113281 4.296875 -7.21875 C 4.546875 -7.320312 4.785156 -7.375 5.015625 -7.375 C 5.265625 -7.375 5.46875 -7.320312 5.625 -7.21875 C 5.78125 -7.113281 5.859375 -6.976562 5.859375 -6.8125 C 5.859375 -6.6875 5.828125 -6.550781 5.765625 -6.40625 C 5.703125 -6.269531 5.613281 -6.148438 5.5 -6.046875 C 5.394531 -5.941406 5.285156 -5.890625 5.171875 -5.890625 C 5.097656 -5.890625 5.019531 -5.898438 4.9375 -5.921875 C 4.851562 -5.953125 4.765625 -5.992188 4.671875 -6.046875 C 4.578125 -6.078125 4.484375 -6.109375 4.390625 -6.140625 C 4.296875 -6.179688 4.195312 -6.203125 4.09375 -6.203125 C 3.8125 -6.203125 3.535156 -6.097656 3.265625 -5.890625 C 3.003906 -5.691406 2.875 -5.296875 2.875 -4.703125 L 2.875 -1.109375 C 2.875 -0.953125 2.957031 -0.820312 3.125 -0.71875 C 3.289062 -0.625 3.519531 -0.523438 3.8125 -0.421875 C 3.945312 -0.390625 4.046875 -0.351562 4.109375 -0.3125 C 4.179688 -0.28125 4.21875 -0.222656 4.21875 -0.140625 C 4.21875 -0.015625 4.101562 0.046875 3.875 0.046875 C 3.507812 0.046875 3.234375 0.03125 3.046875 0 C 2.867188 -0.0195312 2.625 -0.03125 2.3125 -0.03125 C 2.113281 -0.03125 1.953125 -0.0234375 1.828125 -0.015625 C 1.703125 -0.00390625 1.570312 0.00390625 1.4375 0.015625 C 1.300781 0.0351562 1.113281 0.046875 0.875 0.046875 Z M 0.875 0.046875 "/></g></g></g><g fill="#000000" fill-opacity="1"><g transform="translate(93.28088, 21.048389)"><g><path d="M 4.171875 0.25 C 3.503906 0.25 2.898438 0.0976562 2.359375 -0.203125 C 1.828125 -0.515625 1.40625 -0.941406 1.09375 -1.484375 C 0.78125 -2.023438 0.625 -2.640625 0.625 -3.328125 C 0.625 -3.828125 0.722656 -4.316406 0.921875 -4.796875 C 1.117188 -5.273438 1.394531 -5.707031 1.75 -6.09375 C 2.101562 -6.488281 2.515625 -6.800781 2.984375 -7.03125 C 3.460938 -7.257812 3.976562 -7.375 4.53125 -7.375 C 5.21875 -7.375 5.835938 -7.207031 6.390625 -6.875 C 6.941406 -6.539062 7.378906 -6.101562 7.703125 -5.5625 C 8.035156 -5.03125 8.203125 -4.441406 8.203125 -3.796875 C 8.203125 -3.109375 8.050781 -2.453125 7.75 -1.828125 C 7.445312 -1.210938 7 -0.710938 6.40625 -0.328125 C 5.8125 0.0546875 5.066406 0.25 4.171875 0.25 Z M 4.546875 -0.28125 C 4.953125 -0.28125 5.3125 -0.359375 5.625 -0.515625 C 5.945312 -0.671875 6.195312 -0.921875 6.375 -1.265625 C 6.519531 -1.535156 6.613281 -1.867188 6.65625 -2.265625 C 6.707031 -2.660156 6.734375 -3.03125 6.734375 -3.375 C 6.734375 -3.9375 6.628906 -4.484375 6.421875 -5.015625 C 6.210938 -5.546875 5.921875 -5.976562 5.546875 -6.3125 C 5.171875 -6.65625 4.726562 -6.828125 4.21875 -6.828125 C 3.90625 -6.828125 3.617188 -6.773438 3.359375 -6.671875 C 3.109375 -6.578125 2.875 -6.390625 2.65625 -6.109375 C 2.414062 -5.816406 2.257812 -5.457031 2.1875 -5.03125 C 2.113281 -4.601562 2.078125 -4.175781 2.078125 -3.75 C 2.078125 -3.164062 2.1875 -2.609375 2.40625 -2.078125 C 2.625 -1.546875 2.914062 -1.113281 3.28125 -0.78125 C 3.644531 -0.445312 4.066406 -0.28125 4.546875 -0.28125 Z M 4.546875 -0.28125 "/></g></g></g><g fill="#000000" fill-opacity="1"><g transform="translate(103.28288, 21.048389)"><g><path d="M 0.71875 5.078125 C 0.65625 5.078125 0.578125 5.066406 0.484375 5.046875 C 0.390625 5.035156 0.34375 4.992188 0.34375 4.921875 C 0.34375 4.828125 0.382812 4.757812 0.46875 4.71875 C 0.5625 4.675781 0.65625 4.632812 0.75 4.59375 C 0.925781 4.539062 1.097656 4.472656 1.265625 4.390625 C 1.429688 4.316406 1.515625 4.160156 1.515625 3.921875 L 1.515625 -5.109375 C 1.515625 -5.210938 1.488281 -5.359375 1.4375 -5.546875 C 1.382812 -5.734375 1.296875 -5.914062 1.171875 -6.09375 C 1.054688 -6.269531 0.894531 -6.378906 0.6875 -6.421875 C 0.644531 -6.429688 0.609375 -6.457031 0.578125 -6.5 C 0.554688 -6.550781 0.546875 -6.601562 0.546875 -6.65625 C 0.546875 -6.707031 0.554688 -6.75 0.578125 -6.78125 C 0.609375 -6.820312 0.640625 -6.847656 0.671875 -6.859375 C 1.128906 -6.972656 1.515625 -7.09375 1.828125 -7.21875 C 2.148438 -7.34375 2.457031 -7.460938 2.75 -7.578125 C 2.757812 -7.578125 2.765625 -7.578125 2.765625 -7.578125 C 2.765625 -7.585938 2.769531 -7.59375 2.78125 -7.59375 C 2.800781 -7.59375 2.820312 -7.570312 2.84375 -7.53125 C 2.875 -7.5 2.890625 -7.46875 2.890625 -7.4375 C 2.890625 -7.332031 2.875 -7.160156 2.84375 -6.921875 C 2.8125 -6.691406 2.796875 -6.503906 2.796875 -6.359375 C 2.796875 -6.265625 2.800781 -6.210938 2.8125 -6.203125 C 2.9375 -6.316406 3.15625 -6.46875 3.46875 -6.65625 C 3.78125 -6.84375 4.140625 -7.007812 4.546875 -7.15625 C 4.953125 -7.300781 5.335938 -7.375 5.703125 -7.375 C 6.316406 -7.375 6.84375 -7.210938 7.28125 -6.890625 C 7.71875 -6.566406 8.050781 -6.144531 8.28125 -5.625 C 8.507812 -5.101562 8.625 -4.566406 8.625 -4.015625 C 8.625 -3.472656 8.519531 -2.945312 8.3125 -2.4375 C 8.113281 -1.9375 7.832031 -1.484375 7.46875 -1.078125 C 7.101562 -0.679688 6.675781 -0.359375 6.1875 -0.109375 C 5.695312 0.128906 5.175781 0.25 4.625 0.25 C 4.457031 0.25 4.253906 0.222656 4.015625 0.171875 C 3.785156 0.117188 3.5625 0.0507812 3.34375 -0.03125 C 3.125 -0.113281 2.953125 -0.210938 2.828125 -0.328125 C 2.816406 -0.328125 2.804688 -0.253906 2.796875 -0.109375 C 2.785156 0.0234375 2.773438 0.164062 2.765625 0.3125 C 2.765625 0.457031 2.765625 0.550781 2.765625 0.59375 L 2.765625 3.921875 C 2.765625 4.078125 2.828125 4.195312 2.953125 4.28125 C 3.078125 4.375 3.21875 4.441406 3.375 4.484375 C 3.539062 4.523438 3.679688 4.5625 3.796875 4.59375 C 3.890625 4.632812 3.976562 4.675781 4.0625 4.71875 C 4.15625 4.757812 4.203125 4.828125 4.203125 4.921875 C 4.203125 4.992188 4.15625 5.035156 4.0625 5.046875 C 3.96875 5.066406 3.882812 5.078125 3.8125 5.078125 C 3.46875 5.078125 3.179688 5.0625 2.953125 5.03125 C 2.722656 5 2.453125 4.984375 2.140625 4.984375 C 1.941406 4.984375 1.78125 4.988281 1.65625 5 C 1.53125 5.019531 1.398438 5.035156 1.265625 5.046875 C 1.128906 5.066406 0.945312 5.078125 0.71875 5.078125 Z M 4.890625 -0.296875 C 5.066406 -0.296875 5.28125 -0.347656 5.53125 -0.453125 C 5.789062 -0.566406 6.046875 -0.742188 6.296875 -0.984375 C 6.554688 -1.222656 6.769531 -1.539062 6.9375 -1.9375 C 7.113281 -2.34375 7.203125 -2.84375 7.203125 -3.4375 C 7.203125 -4.125 7.113281 -4.675781 6.9375 -5.09375 C 6.757812 -5.507812 6.539062 -5.820312 6.28125 -6.03125 C 6.019531 -6.25 5.75 -6.394531 5.46875 -6.46875 C 5.195312 -6.539062 4.96875 -6.578125 4.78125 -6.578125 C 4.488281 -6.578125 4.191406 -6.515625 3.890625 -6.390625 C 3.585938 -6.273438 3.332031 -6.144531 3.125 -6 C 2.914062 -5.851562 2.8125 -5.738281 2.8125 -5.65625 C 2.8125 -5.394531 2.804688 -5.128906 2.796875 -4.859375 C 2.796875 -4.585938 2.789062 -4.328125 2.78125 -4.078125 C 2.78125 -3.828125 2.773438 -3.601562 2.765625 -3.40625 C 2.765625 -3.21875 2.765625 -3.066406 2.765625 -2.953125 C 2.765625 -2.484375 2.875 -2.046875 3.09375 -1.640625 C 3.3125 -1.234375 3.582031 -0.90625 3.90625 -0.65625 C 4.238281 -0.414062 4.566406 -0.296875 4.890625 -0.296875 Z M 4.890625 -0.296875 "/></g></g></g><g fill="#000000" fill-opacity="1"><g transform="translate(113.712737, 21.048389)"><g><path d="M 3.796875 0.265625 C 3.140625 0.265625 2.566406 0.109375 2.078125 -0.203125 C 1.597656 -0.523438 1.21875 -0.976562 0.9375 -1.5625 C 0.664062 -2.15625 0.53125 -2.84375 0.53125 -3.625 C 0.53125 -4.3125 0.6875 -4.9375 1 -5.5 C 1.320312 -6.0625 1.742188 -6.515625 2.265625 -6.859375 C 2.785156 -7.203125 3.351562 -7.375 3.96875 -7.375 C 4.445312 -7.375 4.867188 -7.28125 5.234375 -7.09375 C 5.609375 -6.90625 5.898438 -6.640625 6.109375 -6.296875 C 6.316406 -5.960938 6.421875 -5.578125 6.421875 -5.140625 C 6.421875 -4.765625 6.242188 -4.578125 5.890625 -4.578125 L 2.125 -4.578125 C 1.957031 -4.578125 1.835938 -4.53125 1.765625 -4.4375 C 1.703125 -4.351562 1.671875 -4.179688 1.671875 -3.921875 C 1.671875 -3.347656 1.796875 -2.828125 2.046875 -2.359375 C 2.296875 -1.890625 2.628906 -1.515625 3.046875 -1.234375 C 3.460938 -0.953125 3.921875 -0.8125 4.421875 -0.8125 C 4.773438 -0.8125 5.097656 -0.878906 5.390625 -1.015625 C 5.679688 -1.160156 5.941406 -1.363281 6.171875 -1.625 C 6.210938 -1.6875 6.242188 -1.722656 6.265625 -1.734375 C 6.296875 -1.753906 6.328125 -1.765625 6.359375 -1.765625 C 6.453125 -1.765625 6.5 -1.707031 6.5 -1.59375 C 6.5 -1.363281 6.394531 -1.113281 6.1875 -0.84375 C 6.007812 -0.613281 5.796875 -0.414062 5.546875 -0.25 C 5.296875 -0.0820312 5.019531 0.0390625 4.71875 0.125 C 4.425781 0.21875 4.117188 0.265625 3.796875 0.265625 Z M 2.15625 -5.140625 L 3.78125 -5.140625 C 4.0625 -5.140625 4.300781 -5.144531 4.5 -5.15625 C 4.707031 -5.164062 4.90625 -5.1875 5.09375 -5.21875 C 5.15625 -5.226562 5.191406 -5.265625 5.203125 -5.328125 C 5.222656 -5.398438 5.234375 -5.492188 5.234375 -5.609375 C 5.234375 -5.960938 5.082031 -6.257812 4.78125 -6.5 C 4.476562 -6.738281 4.117188 -6.859375 3.703125 -6.859375 C 3.429688 -6.859375 3.160156 -6.773438 2.890625 -6.609375 C 2.617188 -6.453125 2.390625 -6.253906 2.203125 -6.015625 C 2.023438 -5.785156 1.9375 -5.550781 1.9375 -5.3125 C 1.9375 -5.195312 2.007812 -5.140625 2.15625 -5.140625 Z M 2.15625 -5.140625 "/></g></g></g><g fill="#000000" fill-opacity="1"><g transform="translate(121.842819, 21.048389)"><g><path d="M 2.078125 0.25 C 1.867188 0.25 1.65625 0.164062 1.4375 0 C 1.21875 -0.164062 1.03125 -0.367188 0.875 -0.609375 C 0.726562 -0.847656 0.65625 -1.070312 0.65625 -1.28125 C 0.65625 -1.664062 0.753906 -1.960938 0.953125 -2.171875 C 1.160156 -2.390625 1.484375 -2.585938 1.921875 -2.765625 L 3.75 -3.515625 C 3.976562 -3.609375 4.113281 -3.691406 4.15625 -3.765625 C 4.195312 -3.835938 4.226562 -3.988281 4.25 -4.21875 L 4.28125 -5.359375 C 4.289062 -5.671875 4.203125 -5.9375 4.015625 -6.15625 C 3.835938 -6.382812 3.578125 -6.5 3.234375 -6.5 C 3.046875 -6.5 2.863281 -6.46875 2.6875 -6.40625 C 2.507812 -6.351562 2.363281 -6.28125 2.25 -6.1875 C 2.175781 -6.132812 2.125 -6.0625 2.09375 -5.96875 C 2.070312 -5.875 2.0625 -5.773438 2.0625 -5.671875 C 2.0625 -5.617188 2.0625 -5.5625 2.0625 -5.5 C 2.070312 -5.445312 2.078125 -5.394531 2.078125 -5.34375 C 2.078125 -5.289062 2.003906 -5.210938 1.859375 -5.109375 C 1.710938 -5.003906 1.546875 -4.910156 1.359375 -4.828125 C 1.179688 -4.753906 1.03125 -4.71875 0.90625 -4.71875 C 0.84375 -4.71875 0.796875 -4.734375 0.765625 -4.765625 C 0.734375 -4.796875 0.71875 -4.835938 0.71875 -4.890625 C 0.71875 -5.078125 0.78125 -5.28125 0.90625 -5.5 C 1.03125 -5.71875 1.203125 -5.921875 1.421875 -6.109375 C 1.703125 -6.359375 2 -6.578125 2.3125 -6.765625 C 2.632812 -6.960938 2.945312 -7.113281 3.25 -7.21875 C 3.5625 -7.320312 3.835938 -7.375 4.078125 -7.375 C 4.503906 -7.375 4.859375 -7.222656 5.140625 -6.921875 C 5.421875 -6.617188 5.554688 -6.242188 5.546875 -5.796875 L 5.453125 -1.515625 C 5.441406 -1.265625 5.5 -1.0625 5.625 -0.90625 C 5.75 -0.75 5.90625 -0.671875 6.09375 -0.671875 C 6.394531 -0.671875 6.613281 -0.738281 6.75 -0.875 C 6.8125 -0.9375 6.863281 -0.96875 6.90625 -0.96875 C 6.957031 -0.96875 7 -0.945312 7.03125 -0.90625 C 7.070312 -0.875 7.09375 -0.828125 7.09375 -0.765625 C 7.09375 -0.640625 7.03125 -0.507812 6.90625 -0.375 C 6.707031 -0.1875 6.5 -0.0351562 6.28125 0.078125 C 6.0625 0.191406 5.859375 0.25 5.671875 0.25 C 5.117188 0.25 4.6875 -0.0546875 4.375 -0.671875 L 4.3125 -0.671875 C 3.914062 -0.359375 3.539062 -0.128906 3.1875 0.015625 C 2.832031 0.171875 2.460938 0.25 2.078125 0.25 Z M 2.921875 -0.609375 C 3.160156 -0.609375 3.363281 -0.644531 3.53125 -0.71875 C 3.695312 -0.800781 3.84375 -0.90625 3.96875 -1.03125 C 4.03125 -1.09375 4.082031 -1.171875 4.125 -1.265625 C 4.164062 -1.367188 4.191406 -1.535156 4.203125 -1.765625 L 4.25 -2.640625 C 4.257812 -2.765625 4.25 -2.859375 4.21875 -2.921875 C 4.195312 -2.984375 4.148438 -3.015625 4.078125 -3.015625 C 4.054688 -3.015625 4.015625 -3.007812 3.953125 -3 C 3.898438 -2.988281 3.820312 -2.960938 3.71875 -2.921875 C 3.09375 -2.691406 2.65625 -2.457031 2.40625 -2.21875 C 2.164062 -1.976562 2.046875 -1.753906 2.046875 -1.546875 C 2.046875 -1.242188 2.140625 -1.007812 2.328125 -0.84375 C 2.515625 -0.6875 2.710938 -0.609375 2.921875 -0.609375 Z M 2.921875 -0.609375 "/></g></g></g><g fill="#000000" fill-opacity="1"><g transform="translate(130.133355, 21.048389)"><g><path d="M 0.78125 0.046875 C 0.675781 0.046875 0.585938 0.03125 0.515625 0 C 0.453125 -0.0195312 0.421875 -0.0664062 0.421875 -0.140625 C 0.421875 -0.234375 0.457031 -0.296875 0.53125 -0.328125 C 0.601562 -0.359375 0.707031 -0.390625 0.84375 -0.421875 C 1.019531 -0.472656 1.191406 -0.539062 1.359375 -0.625 C 1.523438 -0.707031 1.609375 -0.867188 1.609375 -1.109375 L 1.609375 -4.9375 C 1.609375 -5.257812 1.570312 -5.53125 1.5 -5.75 C 1.4375 -5.976562 1.25 -6.132812 0.9375 -6.21875 C 0.894531 -6.238281 0.851562 -6.265625 0.8125 -6.296875 C 0.78125 -6.328125 0.765625 -6.378906 0.765625 -6.453125 C 0.765625 -6.585938 0.816406 -6.660156 0.921875 -6.671875 C 1.335938 -6.773438 1.675781 -6.90625 1.9375 -7.0625 C 2.195312 -7.21875 2.453125 -7.390625 2.703125 -7.578125 C 2.742188 -7.597656 2.78125 -7.617188 2.8125 -7.640625 C 2.84375 -7.660156 2.875 -7.671875 2.90625 -7.671875 C 2.925781 -7.671875 2.945312 -7.65625 2.96875 -7.625 C 2.988281 -7.601562 3 -7.578125 3 -7.546875 C 3 -7.460938 2.984375 -7.289062 2.953125 -7.03125 C 2.921875 -6.78125 2.90625 -6.570312 2.90625 -6.40625 C 2.90625 -6.351562 2.90625 -6.304688 2.90625 -6.265625 C 2.914062 -6.222656 2.925781 -6.195312 2.9375 -6.1875 C 3.351562 -6.582031 3.796875 -6.878906 4.265625 -7.078125 C 4.734375 -7.273438 5.25 -7.375 5.8125 -7.375 C 6.394531 -7.375 6.875 -7.132812 7.25 -6.65625 C 7.632812 -6.1875 7.828125 -5.601562 7.828125 -4.90625 L 7.828125 -1.109375 C 7.828125 -0.867188 7.910156 -0.707031 8.078125 -0.625 C 8.242188 -0.550781 8.414062 -0.484375 8.59375 -0.421875 C 8.6875 -0.390625 8.773438 -0.351562 8.859375 -0.3125 C 8.953125 -0.269531 9 -0.203125 9 -0.109375 C 9 -0.0351562 8.957031 0.00390625 8.875 0.015625 C 8.789062 0.0351562 8.710938 0.046875 8.640625 0.046875 C 8.410156 0.046875 8.226562 0.0351562 8.09375 0.015625 C 7.957031 0.00390625 7.832031 -0.00390625 7.71875 -0.015625 C 7.601562 -0.0234375 7.4375 -0.03125 7.21875 -0.03125 C 7.019531 -0.03125 6.851562 -0.0234375 6.71875 -0.015625 C 6.59375 -0.00390625 6.457031 0.00390625 6.3125 0.015625 C 6.175781 0.0351562 5.992188 0.046875 5.765625 0.046875 C 5.703125 0.046875 5.625 0.0351562 5.53125 0.015625 C 5.445312 0.00390625 5.40625 -0.0351562 5.40625 -0.109375 C 5.40625 -0.203125 5.445312 -0.269531 5.53125 -0.3125 C 5.625 -0.351562 5.71875 -0.390625 5.8125 -0.421875 C 5.988281 -0.484375 6.160156 -0.550781 6.328125 -0.625 C 6.492188 -0.707031 6.578125 -0.867188 6.578125 -1.109375 L 6.578125 -4.84375 C 6.578125 -5.375 6.429688 -5.78125 6.140625 -6.0625 C 5.847656 -6.351562 5.457031 -6.507812 4.96875 -6.53125 C 4.539062 -6.53125 4.164062 -6.457031 3.84375 -6.3125 C 3.53125 -6.175781 3.25 -6.007812 3 -5.8125 C 2.945312 -5.757812 2.910156 -5.695312 2.890625 -5.625 C 2.867188 -5.550781 2.859375 -5.476562 2.859375 -5.40625 L 2.859375 -1.109375 C 2.859375 -0.867188 2.941406 -0.707031 3.109375 -0.625 C 3.273438 -0.539062 3.445312 -0.472656 3.625 -0.421875 C 3.894531 -0.359375 4.03125 -0.265625 4.03125 -0.140625 C 4.03125 -0.0664062 4 -0.0195312 3.9375 0 C 3.875 0.03125 3.785156 0.046875 3.671875 0.046875 C 3.429688 0.046875 3.242188 0.0351562 3.109375 0.015625 C 2.972656 0.00390625 2.84375 -0.00390625 2.71875 -0.015625 C 2.601562 -0.0234375 2.441406 -0.03125 2.234375 -0.03125 C 2.023438 -0.03125 1.859375 -0.0234375 1.734375 -0.015625 C 1.609375 -0.00390625 1.476562 0.00390625 1.34375 0.015625 C 1.207031 0.0351562 1.019531 0.046875 0.78125 0.046875 Z M 0.78125 0.046875 "/></g></g></g></svg>