<svg xmlns="http://www.w3.org/2000/svg" xmlns:xlink="http://www.w3.org/1999/xlink" width="500" zoomAndPan="magnify" viewBox="0 0 375 374.999991" height="500" preserveAspectRatio="xMidYMid meet" version="1.0"><defs><g/></defs><g fill="#000000" fill-opacity="1"><g transform="translate(73.740786, 252.627682)"><g><path d="M 39.453125 0.921875 C 37.859375 0.921875 36.566406 0.765625 35.578125 0.453125 C 34.597656 0.148438 34.109375 -0.367188 34.109375 -1.109375 C 34.109375 -1.960938 34.597656 -2.632812 35.578125 -3.125 C 36.566406 -3.625 38.101562 -4.054688 40.1875 -4.421875 C 44.863281 -5.285156 48.429688 -6.789062 50.890625 -8.9375 C 53.347656 -11.09375 54.578125 -14.382812 54.578125 -18.8125 L 54.578125 -90.34375 C 54.578125 -96 54.453125 -100.332031 54.203125 -103.34375 C 53.960938 -106.351562 53.5625 -108.472656 53 -109.703125 C 52.445312 -110.929688 51.679688 -111.609375 50.703125 -111.734375 C 48.984375 -112.097656 47.171875 -112.3125 45.265625 -112.375 C 43.359375 -112.4375 40.804688 -112.46875 37.609375 -112.46875 L 28.953125 -112.46875 C 25.992188 -112.46875 23.070312 -111.882812 20.1875 -110.71875 C 17.300781 -109.550781 15.179688 -107.738281 13.828125 -105.28125 C 13.460938 -104.664062 12.847656 -103.773438 11.984375 -102.609375 C 11.117188 -101.441406 10.195312 -100.425781 9.21875 -99.5625 C 8.238281 -98.695312 7.253906 -98.265625 6.265625 -98.265625 C 5.773438 -98.265625 5.4375 -98.507812 5.25 -99 C 5.070312 -99.5 4.984375 -100.054688 4.984375 -100.671875 C 4.984375 -101.898438 5.289062 -103.128906 5.90625 -104.359375 C 7.625 -107.921875 8.878906 -111.082031 9.671875 -113.84375 C 10.472656 -116.613281 11.117188 -119.90625 11.609375 -123.71875 C 11.859375 -125.800781 12.320312 -127.023438 13 -127.390625 C 13.675781 -127.765625 14.257812 -127.953125 14.75 -127.953125 C 15.238281 -127.953125 16.003906 -127.210938 17.046875 -125.734375 C 18.097656 -124.265625 18.867188 -123.039062 19.359375 -122.0625 C 20.097656 -120.832031 21.785156 -119.910156 24.421875 -119.296875 C 27.066406 -118.679688 29.679688 -118.375 32.265625 -118.375 L 97.171875 -118.375 C 101.472656 -118.375 104.972656 -118.617188 107.671875 -119.109375 C 110.378906 -119.597656 112.71875 -120.273438 114.6875 -121.140625 C 116.15625 -121.867188 117.347656 -122.664062 118.265625 -123.53125 C 119.191406 -124.394531 120.394531 -124.828125 121.875 -124.828125 C 122.238281 -124.828125 122.539062 -124.363281 122.78125 -123.4375 C 123.03125 -122.519531 123.15625 -121.566406 123.15625 -120.578125 C 123.15625 -119.960938 123.0625 -119.101562 122.875 -118 C 122.695312 -116.894531 122.546875 -116.035156 122.421875 -115.421875 C 122.054688 -113.203125 121.71875 -111.601562 121.40625 -110.625 C 121.101562 -109.644531 120.890625 -108.785156 120.765625 -108.046875 C 120.640625 -107.304688 120.578125 -106.140625 120.578125 -104.546875 L 120.578125 -102.328125 C 120.578125 -101.222656 120.332031 -99.960938 119.84375 -98.546875 C 119.351562 -97.128906 118.613281 -96.421875 117.625 -96.421875 C 116.769531 -96.421875 116.09375 -97.097656 115.59375 -98.453125 C 115.101562 -99.804688 114.613281 -101.648438 114.125 -103.984375 C 113.632812 -106.566406 112.160156 -108.625 109.703125 -110.15625 C 107.242188 -111.695312 103.066406 -112.46875 97.171875 -112.46875 L 78.546875 -112.46875 C 75.835938 -112.46875 73.804688 -112.097656 72.453125 -111.359375 C 71.109375 -110.617188 70.25 -108.773438 69.875 -105.828125 C 69.507812 -102.878906 69.328125 -98.023438 69.328125 -91.265625 L 69.328125 -18.8125 C 69.328125 -14.382812 70.613281 -11.09375 73.1875 -8.9375 C 75.769531 -6.789062 79.335938 -5.285156 83.890625 -4.421875 C 85.984375 -4.054688 87.519531 -3.625 88.5 -3.125 C 89.476562 -2.632812 89.96875 -1.960938 89.96875 -1.109375 C 89.96875 -0.367188 89.476562 0.148438 88.5 0.453125 C 87.519531 0.765625 86.226562 0.921875 84.625 0.921875 C 81.3125 0.921875 78.578125 0.828125 76.421875 0.640625 C 74.273438 0.460938 72.21875 0.3125 70.25 0.1875 C 68.28125 0.0625 65.882812 0 63.0625 0 C 59.988281 0 57.3125 0.0625 55.03125 0.1875 C 52.757812 0.3125 50.425781 0.460938 48.03125 0.640625 C 45.632812 0.828125 42.773438 0.921875 39.453125 0.921875 Z M 39.453125 0.921875 "/></g></g></g><g fill="#000000" fill-opacity="1"><g transform="translate(197.271503, 252.627682)"><g><path d="M 12.171875 0.921875 C 10.566406 0.921875 9.273438 0.765625 8.296875 0.453125 C 7.316406 0.148438 6.828125 -0.367188 6.828125 -1.109375 C 6.828125 -2.578125 8.851562 -3.679688 12.90625 -4.421875 C 17.570312 -5.285156 21.007812 -6.695312 23.21875 -8.65625 C 25.4375 -10.625 26.546875 -13.820312 26.546875 -18.25 L 26.546875 -101.21875 C 26.546875 -105.644531 25.65625 -108.78125 23.875 -110.625 C 22.09375 -112.46875 18.867188 -113.820312 14.203125 -114.6875 C 12.109375 -115.050781 10.566406 -115.539062 9.578125 -116.15625 C 8.597656 -116.769531 8.109375 -117.507812 8.109375 -118.375 C 8.109375 -119.101562 8.597656 -119.617188 9.578125 -119.921875 C 10.566406 -120.234375 11.859375 -120.390625 13.453125 -120.390625 C 18.128906 -120.390625 22.09375 -120.328125 25.34375 -120.203125 C 28.601562 -120.085938 31.800781 -120 34.9375 -119.9375 C 38.070312 -119.875 41.789062 -119.84375 46.09375 -119.84375 C 50.144531 -119.84375 54.414062 -119.875 58.90625 -119.9375 C 63.394531 -120 67.546875 -120.03125 71.359375 -120.03125 C 75.535156 -120.15625 79.066406 -120.242188 81.953125 -120.296875 C 84.835938 -120.359375 86.53125 -120.390625 87.03125 -120.390625 C 87.644531 -120.390625 88.316406 -120.265625 89.046875 -120.015625 C 89.785156 -119.773438 90.21875 -119.347656 90.34375 -118.734375 C 90.957031 -115.296875 91.570312 -111.882812 92.1875 -108.5 C 92.800781 -105.125 93.109375 -102.207031 93.109375 -99.75 C 93.109375 -98.644531 92.832031 -97.90625 92.28125 -97.53125 C 91.726562 -97.164062 91.144531 -96.984375 90.53125 -96.984375 C 89.914062 -96.984375 89.484375 -97.132812 89.234375 -97.4375 C 88.992188 -97.75 88.75 -98.210938 88.5 -98.828125 C 87.882812 -100.910156 87.269531 -102.90625 86.65625 -104.8125 C 86.039062 -106.71875 85.300781 -108.101562 84.4375 -108.96875 C 82.71875 -110.9375 80.8125 -112.253906 78.71875 -112.921875 C 76.632812 -113.597656 74.425781 -113.9375 72.09375 -113.9375 L 47.9375 -113.9375 C 46.957031 -113.9375 45.601562 -113.382812 43.875 -112.28125 C 42.15625 -111.175781 41.296875 -109.765625 41.296875 -108.046875 L 41.296875 -68.953125 C 41.296875 -67.847656 41.632812 -66.894531 42.3125 -66.09375 C 42.988281 -65.300781 43.757812 -64.90625 44.625 -64.90625 L 62.875 -64.90625 C 66.4375 -64.90625 68.894531 -65.546875 70.25 -66.828125 C 71.601562 -68.117188 72.707031 -70.488281 73.5625 -73.9375 C 74.300781 -76.632812 75.410156 -77.984375 76.890625 -77.984375 C 77.378906 -77.984375 77.898438 -77.738281 78.453125 -77.25 C 79.003906 -76.757812 79.28125 -76.023438 79.28125 -75.046875 C 79.28125 -74.546875 79.25 -73.4375 79.1875 -71.71875 C 79.125 -70 79.03125 -68.21875 78.90625 -66.375 C 78.789062 -64.53125 78.734375 -63.117188 78.734375 -62.140625 C 78.734375 -60.910156 78.757812 -59.28125 78.8125 -57.25 C 78.875 -55.21875 78.9375 -53.28125 79 -51.4375 C 79.0625 -49.59375 79.09375 -48.425781 79.09375 -47.9375 C 79.09375 -47.070312 79 -46.332031 78.8125 -45.71875 C 78.632812 -45.101562 78.175781 -44.796875 77.4375 -44.796875 C 75.59375 -44.796875 74.179688 -46.765625 73.203125 -50.703125 C 72.460938 -53.523438 71.476562 -55.613281 70.25 -56.96875 C 69.019531 -58.320312 67.175781 -59 64.71875 -59 L 47.5625 -59 C 45.476562 -59 43.910156 -58.722656 42.859375 -58.171875 C 41.816406 -57.617188 41.296875 -56.296875 41.296875 -54.203125 L 41.296875 -18.8125 C 41.296875 -14.132812 42.28125 -10.90625 44.25 -9.125 C 46.21875 -7.34375 49.289062 -6.453125 53.46875 -6.453125 L 67.109375 -6.453125 C 71.046875 -6.453125 74.332031 -6.664062 76.96875 -7.09375 C 79.613281 -7.53125 81.921875 -8.363281 83.890625 -9.59375 C 85.859375 -10.9375 87.609375 -12.710938 89.140625 -14.921875 C 90.679688 -17.140625 92.4375 -20.09375 94.40625 -23.78125 C 94.769531 -24.519531 95.195312 -25.132812 95.6875 -25.625 C 96.175781 -26.113281 96.726562 -26.300781 97.34375 -26.1875 C 97.957031 -26.0625 98.445312 -25.78125 98.8125 -25.34375 C 99.1875 -24.914062 99.375 -24.332031 99.375 -23.59375 C 99.375 -22.488281 99.066406 -20.550781 98.453125 -17.78125 C 97.835938 -15.019531 97.066406 -12.164062 96.140625 -9.21875 C 95.222656 -6.269531 94.394531 -3.9375 93.65625 -2.21875 C 93.289062 -1.351562 92.953125 -0.613281 92.640625 0 C 92.335938 0.613281 91.816406 0.921875 91.078125 0.921875 C 85.179688 0.921875 79.710938 0.859375 74.671875 0.734375 C 69.628906 0.609375 64.832031 0.484375 60.28125 0.359375 C 55.738281 0.242188 51.285156 0.125 46.921875 0 C 42.554688 -0.125 38.039062 -0.1875 33.375 -0.1875 C 30.664062 -0.1875 28.328125 -0.09375 26.359375 0.09375 C 24.398438 0.28125 22.375 0.460938 20.28125 0.640625 C 18.1875 0.828125 15.484375 0.921875 12.171875 0.921875 Z M 12.171875 0.921875 "/></g></g></g><g fill="#000000" fill-opacity="1"><g transform="translate(36.906978, 288.083469)"><g><path d="M 8.90625 0.203125 C 8.539062 0.203125 8.242188 0.164062 8.015625 0.09375 C 7.796875 0.03125 7.6875 -0.0820312 7.6875 -0.25 C 7.6875 -0.445312 7.796875 -0.597656 8.015625 -0.703125 C 8.242188 -0.816406 8.59375 -0.914062 9.0625 -1 C 10.113281 -1.195312 10.914062 -1.535156 11.46875 -2.015625 C 12.03125 -2.503906 12.3125 -3.25 12.3125 -4.25 L 12.3125 -20.375 C 12.3125 -21.65625 12.28125 -22.632812 12.21875 -23.3125 C 12.164062 -23.988281 12.078125 -24.46875 11.953125 -24.75 C 11.828125 -25.03125 11.65625 -25.179688 11.4375 -25.203125 C 11.050781 -25.285156 10.640625 -25.332031 10.203125 -25.34375 C 9.773438 -25.363281 9.203125 -25.375 8.484375 -25.375 L 6.53125 -25.375 C 5.863281 -25.375 5.203125 -25.238281 4.546875 -24.96875 C 3.898438 -24.707031 3.425781 -24.300781 3.125 -23.75 C 3.039062 -23.613281 2.898438 -23.410156 2.703125 -23.140625 C 2.503906 -22.878906 2.296875 -22.648438 2.078125 -22.453125 C 1.859375 -22.265625 1.640625 -22.171875 1.421875 -22.171875 C 1.304688 -22.171875 1.226562 -22.222656 1.1875 -22.328125 C 1.144531 -22.441406 1.125 -22.566406 1.125 -22.703125 C 1.125 -22.984375 1.191406 -23.265625 1.328125 -23.546875 C 1.710938 -24.347656 1.992188 -25.0625 2.171875 -25.6875 C 2.359375 -26.3125 2.507812 -27.050781 2.625 -27.90625 C 2.675781 -28.375 2.773438 -28.648438 2.921875 -28.734375 C 3.078125 -28.816406 3.210938 -28.859375 3.328125 -28.859375 C 3.441406 -28.859375 3.613281 -28.691406 3.84375 -28.359375 C 4.082031 -28.035156 4.257812 -27.757812 4.375 -27.53125 C 4.53125 -27.257812 4.90625 -27.050781 5.5 -26.90625 C 6.101562 -26.769531 6.695312 -26.703125 7.28125 -26.703125 L 21.921875 -26.703125 C 22.890625 -26.703125 23.675781 -26.753906 24.28125 -26.859375 C 24.894531 -26.972656 25.425781 -27.128906 25.875 -27.328125 C 26.207031 -27.492188 26.476562 -27.671875 26.6875 -27.859375 C 26.894531 -28.054688 27.164062 -28.15625 27.5 -28.15625 C 27.582031 -28.15625 27.648438 -28.050781 27.703125 -27.84375 C 27.753906 -27.632812 27.78125 -27.421875 27.78125 -27.203125 C 27.78125 -27.066406 27.757812 -26.875 27.71875 -26.625 C 27.675781 -26.375 27.644531 -26.175781 27.625 -26.03125 C 27.539062 -25.53125 27.460938 -25.171875 27.390625 -24.953125 C 27.316406 -24.734375 27.265625 -24.539062 27.234375 -24.375 C 27.210938 -24.207031 27.203125 -23.941406 27.203125 -23.578125 L 27.203125 -23.078125 C 27.203125 -22.828125 27.144531 -22.539062 27.03125 -22.21875 C 26.925781 -21.90625 26.757812 -21.75 26.53125 -21.75 C 26.34375 -21.75 26.191406 -21.898438 26.078125 -22.203125 C 25.960938 -22.515625 25.851562 -22.929688 25.75 -23.453125 C 25.632812 -24.035156 25.300781 -24.5 24.75 -24.84375 C 24.195312 -25.195312 23.253906 -25.375 21.921875 -25.375 L 17.71875 -25.375 C 17.101562 -25.375 16.644531 -25.289062 16.34375 -25.125 C 16.039062 -24.957031 15.847656 -24.539062 15.765625 -23.875 C 15.679688 -23.207031 15.640625 -22.113281 15.640625 -20.59375 L 15.640625 -4.25 C 15.640625 -3.25 15.929688 -2.503906 16.515625 -2.015625 C 17.097656 -1.535156 17.898438 -1.195312 18.921875 -1 C 19.390625 -0.914062 19.734375 -0.816406 19.953125 -0.703125 C 20.179688 -0.597656 20.296875 -0.445312 20.296875 -0.25 C 20.296875 -0.0820312 20.179688 0.03125 19.953125 0.09375 C 19.734375 0.164062 19.445312 0.203125 19.09375 0.203125 C 18.34375 0.203125 17.722656 0.179688 17.234375 0.140625 C 16.753906 0.0976562 16.289062 0.0625 15.84375 0.03125 C 15.40625 0.0078125 14.863281 0 14.21875 0 C 13.53125 0 12.925781 0.0078125 12.40625 0.03125 C 11.894531 0.0625 11.367188 0.0976562 10.828125 0.140625 C 10.296875 0.179688 9.65625 0.203125 8.90625 0.203125 Z M 8.90625 0.203125 "/></g></g></g><g fill="#000000" fill-opacity="1"><g transform="translate(67.520443, 288.083469)"><g><path d="M 1.625 0.125 C 1.070312 0.125 0.796875 -0.0234375 0.796875 -0.328125 C 0.796875 -0.578125 1.113281 -0.800781 1.75 -1 C 2.164062 -1.132812 2.5625 -1.3125 2.9375 -1.53125 C 3.3125 -1.757812 3.507812 -2.148438 3.53125 -2.703125 L 3.53125 -23.546875 C 3.53125 -24.296875 3.40625 -24.953125 3.15625 -25.515625 C 2.90625 -26.085938 2.421875 -26.425781 1.703125 -26.53125 C 1.453125 -26.59375 1.328125 -26.789062 1.328125 -27.125 C 1.328125 -27.375 1.4375 -27.539062 1.65625 -27.625 C 2.050781 -27.757812 2.519531 -27.910156 3.0625 -28.078125 C 3.601562 -28.242188 4.160156 -28.429688 4.734375 -28.640625 C 5.316406 -28.847656 5.832031 -29.046875 6.28125 -29.234375 C 6.394531 -29.296875 6.476562 -29.328125 6.53125 -29.328125 C 6.613281 -29.328125 6.679688 -29.296875 6.734375 -29.234375 C 6.796875 -29.179688 6.828125 -29.113281 6.828125 -29.03125 C 6.828125 -28.863281 6.789062 -28.628906 6.71875 -28.328125 C 6.644531 -28.023438 6.582031 -27.5 6.53125 -26.75 C 6.476562 -26 6.453125 -24.875 6.453125 -23.375 L 6.453125 -16.140625 C 6.453125 -15.691406 6.472656 -15.367188 6.515625 -15.171875 C 6.554688 -14.984375 6.628906 -14.789062 6.734375 -14.59375 C 7.179688 -14.925781 7.726562 -15.296875 8.375 -15.703125 C 9.03125 -16.109375 9.757812 -16.460938 10.5625 -16.765625 C 11.363281 -17.066406 12.195312 -17.21875 13.0625 -17.21875 C 14.414062 -17.21875 15.539062 -16.679688 16.4375 -15.609375 C 17.34375 -14.546875 17.796875 -13.195312 17.796875 -11.5625 L 17.796875 -2.828125 C 17.796875 -2.273438 17.976562 -1.863281 18.34375 -1.59375 C 18.707031 -1.332031 19.09375 -1.132812 19.5 -1 C 19.8125 -0.914062 20.050781 -0.820312 20.21875 -0.71875 C 20.382812 -0.625 20.46875 -0.492188 20.46875 -0.328125 C 20.46875 -0.0234375 20.1875 0.125 19.625 0.125 C 19.070312 0.125 18.648438 0.101562 18.359375 0.0625 C 18.066406 0.0195312 17.789062 -0.0078125 17.53125 -0.03125 C 17.269531 -0.0625 16.890625 -0.078125 16.390625 -0.078125 C 15.921875 -0.078125 15.546875 -0.0625 15.265625 -0.03125 C 14.984375 -0.0078125 14.695312 0.0195312 14.40625 0.0625 C 14.113281 0.101562 13.691406 0.125 13.140625 0.125 C 12.585938 0.125 12.3125 -0.0234375 12.3125 -0.328125 C 12.3125 -0.523438 12.394531 -0.65625 12.5625 -0.71875 C 12.726562 -0.789062 12.960938 -0.882812 13.265625 -1 C 13.679688 -1.132812 14.054688 -1.332031 14.390625 -1.59375 C 14.722656 -1.863281 14.890625 -2.273438 14.890625 -2.828125 L 14.890625 -11.3125 C 14.890625 -12.007812 14.6875 -12.640625 14.28125 -13.203125 C 13.882812 -13.773438 13.394531 -14.226562 12.8125 -14.5625 C 12.226562 -14.894531 11.628906 -15.0625 11.015625 -15.0625 C 10.492188 -15.0625 9.882812 -14.984375 9.1875 -14.828125 C 8.5 -14.671875 7.957031 -14.441406 7.5625 -14.140625 C 7.125 -13.773438 6.828125 -13.398438 6.671875 -13.015625 C 6.523438 -12.628906 6.453125 -12.003906 6.453125 -11.140625 L 6.453125 -2.703125 C 6.472656 -2.148438 6.640625 -1.757812 6.953125 -1.53125 C 7.273438 -1.3125 7.644531 -1.132812 8.0625 -1 C 8.375 -0.914062 8.601562 -0.820312 8.75 -0.71875 C 8.90625 -0.625 8.984375 -0.492188 8.984375 -0.328125 C 8.984375 -0.0234375 8.707031 0.125 8.15625 0.125 C 7.601562 0.125 7.1875 0.101562 6.90625 0.0625 C 6.625 0.0195312 6.359375 -0.0078125 6.109375 -0.03125 C 5.859375 -0.0625 5.484375 -0.078125 4.984375 -0.078125 C 4.515625 -0.078125 4.132812 -0.0625 3.84375 -0.03125 C 3.550781 -0.0078125 3.242188 0.0195312 2.921875 0.0625 C 2.609375 0.101562 2.175781 0.125 1.625 0.125 Z M 1.625 0.125 "/></g></g></g><g fill="#000000" fill-opacity="1"><g transform="translate(91.686999, 288.083469)"><g><path d="M 1.828125 0.125 C 1.578125 0.125 1.375 0.0859375 1.21875 0.015625 C 1.070312 -0.046875 1 -0.160156 1 -0.328125 C 1 -0.554688 1.101562 -0.710938 1.3125 -0.796875 C 1.519531 -0.878906 1.734375 -0.945312 1.953125 -1 C 2.535156 -1.132812 2.976562 -1.304688 3.28125 -1.515625 C 3.59375 -1.722656 3.75 -2.078125 3.75 -2.578125 L 3.75 -11.609375 C 3.75 -12.359375 3.613281 -13.019531 3.34375 -13.59375 C 3.082031 -14.175781 2.59375 -14.523438 1.875 -14.640625 C 1.726562 -14.671875 1.617188 -14.726562 1.546875 -14.8125 C 1.484375 -14.894531 1.453125 -15.019531 1.453125 -15.1875 C 1.453125 -15.488281 1.578125 -15.65625 1.828125 -15.6875 C 2.941406 -15.9375 3.859375 -16.273438 4.578125 -16.703125 C 5.296875 -17.128906 5.835938 -17.484375 6.203125 -17.765625 C 6.453125 -17.953125 6.644531 -18.046875 6.78125 -18.046875 C 6.945312 -18.046875 7.03125 -17.976562 7.03125 -17.84375 C 7.03125 -17.625 6.992188 -17.1875 6.921875 -16.53125 C 6.859375 -15.882812 6.796875 -15.164062 6.734375 -14.375 C 6.679688 -13.582031 6.65625 -12.867188 6.65625 -12.234375 L 6.65625 -2.578125 C 6.65625 -2.109375 6.8125 -1.757812 7.125 -1.53125 C 7.445312 -1.3125 7.882812 -1.132812 8.4375 -1 C 8.664062 -0.945312 8.882812 -0.878906 9.09375 -0.796875 C 9.300781 -0.710938 9.40625 -0.554688 9.40625 -0.328125 C 9.40625 -0.0234375 9.125 0.125 8.5625 0.125 C 8.039062 0.125 7.617188 0.101562 7.296875 0.0625 C 6.984375 0.0195312 6.679688 -0.0078125 6.390625 -0.03125 C 6.097656 -0.0625 5.703125 -0.078125 5.203125 -0.078125 C 4.722656 -0.078125 4.332031 -0.0625 4.03125 -0.03125 C 3.726562 -0.0078125 3.421875 0.0195312 3.109375 0.0625 C 2.804688 0.101562 2.378906 0.125 1.828125 0.125 Z M 5.15625 -21.46875 C 4.570312 -21.46875 4.078125 -21.664062 3.671875 -22.0625 C 3.273438 -22.46875 3.078125 -22.960938 3.078125 -23.546875 C 3.078125 -24.148438 3.273438 -24.648438 3.671875 -25.046875 C 4.078125 -25.453125 4.570312 -25.65625 5.15625 -25.65625 C 5.769531 -25.65625 6.273438 -25.453125 6.671875 -25.046875 C 7.078125 -24.648438 7.28125 -24.148438 7.28125 -23.546875 C 7.28125 -22.960938 7.078125 -22.46875 6.671875 -22.0625 C 6.273438 -21.664062 5.769531 -21.46875 5.15625 -21.46875 Z M 5.15625 -21.46875 "/></g></g></g><g fill="#000000" fill-opacity="1"><g transform="translate(104.623472, 288.083469)"><g><path d="M 1.828125 0.125 C 1.578125 0.125 1.375 0.0859375 1.21875 0.015625 C 1.070312 -0.046875 1 -0.160156 1 -0.328125 C 1 -0.554688 1.082031 -0.703125 1.25 -0.765625 C 1.414062 -0.835938 1.648438 -0.914062 1.953125 -1 C 2.367188 -1.113281 2.769531 -1.265625 3.15625 -1.453125 C 3.550781 -1.648438 3.75 -2.023438 3.75 -2.578125 L 3.75 -11.515625 C 3.75 -12.265625 3.671875 -12.898438 3.515625 -13.421875 C 3.359375 -13.953125 2.921875 -14.316406 2.203125 -14.515625 C 2.085938 -14.566406 1.988281 -14.628906 1.90625 -14.703125 C 1.820312 -14.773438 1.78125 -14.894531 1.78125 -15.0625 C 1.78125 -15.363281 1.90625 -15.53125 2.15625 -15.5625 C 3.132812 -15.8125 3.925781 -16.113281 4.53125 -16.46875 C 5.144531 -16.832031 5.742188 -17.234375 6.328125 -17.671875 C 6.410156 -17.734375 6.484375 -17.785156 6.546875 -17.828125 C 6.617188 -17.867188 6.695312 -17.890625 6.78125 -17.890625 C 6.832031 -17.890625 6.878906 -17.859375 6.921875 -17.796875 C 6.960938 -17.742188 6.984375 -17.675781 6.984375 -17.59375 C 6.984375 -17.394531 6.945312 -17 6.875 -16.40625 C 6.8125 -15.8125 6.78125 -15.320312 6.78125 -14.9375 C 6.78125 -14.820312 6.785156 -14.710938 6.796875 -14.609375 C 6.816406 -14.515625 6.835938 -14.457031 6.859375 -14.4375 C 7.828125 -15.351562 8.859375 -16.046875 9.953125 -16.515625 C 11.054688 -16.984375 12.257812 -17.21875 13.5625 -17.21875 C 14.914062 -17.21875 16.035156 -16.660156 16.921875 -15.546875 C 17.816406 -14.441406 18.265625 -13.070312 18.265625 -11.4375 L 18.265625 -2.578125 C 18.265625 -2.023438 18.457031 -1.65625 18.84375 -1.46875 C 19.226562 -1.289062 19.628906 -1.132812 20.046875 -1 C 20.265625 -0.914062 20.476562 -0.820312 20.6875 -0.71875 C 20.894531 -0.625 21 -0.46875 21 -0.25 C 21 -0.0820312 20.898438 0.0195312 20.703125 0.0625 C 20.515625 0.101562 20.335938 0.125 20.171875 0.125 C 19.617188 0.125 19.1875 0.101562 18.875 0.0625 C 18.570312 0.0195312 18.28125 -0.0078125 18 -0.03125 C 17.726562 -0.0625 17.34375 -0.078125 16.84375 -0.078125 C 16.375 -0.078125 15.984375 -0.0625 15.671875 -0.03125 C 15.367188 -0.0078125 15.054688 0.0195312 14.734375 0.0625 C 14.421875 0.101562 13.988281 0.125 13.4375 0.125 C 13.300781 0.125 13.128906 0.101562 12.921875 0.0625 C 12.710938 0.0195312 12.609375 -0.0820312 12.609375 -0.25 C 12.609375 -0.46875 12.710938 -0.625 12.921875 -0.71875 C 13.128906 -0.820312 13.34375 -0.914062 13.5625 -1 C 13.976562 -1.132812 14.378906 -1.289062 14.765625 -1.46875 C 15.148438 -1.65625 15.34375 -2.023438 15.34375 -2.578125 L 15.34375 -11.3125 C 15.34375 -12.53125 15.003906 -13.476562 14.328125 -14.15625 C 13.648438 -14.84375 12.742188 -15.195312 11.609375 -15.21875 C 10.609375 -15.21875 9.734375 -15.054688 8.984375 -14.734375 C 8.234375 -14.421875 7.566406 -14.03125 6.984375 -13.5625 C 6.878906 -13.445312 6.796875 -13.300781 6.734375 -13.125 C 6.679688 -12.945312 6.65625 -12.773438 6.65625 -12.609375 L 6.65625 -2.578125 C 6.65625 -2.023438 6.847656 -1.648438 7.234375 -1.453125 C 7.617188 -1.265625 8.019531 -1.113281 8.4375 -1 C 9.082031 -0.832031 9.40625 -0.609375 9.40625 -0.328125 C 9.40625 -0.160156 9.332031 -0.046875 9.1875 0.015625 C 9.050781 0.0859375 8.84375 0.125 8.5625 0.125 C 8.007812 0.125 7.570312 0.101562 7.25 0.0625 C 6.9375 0.0195312 6.640625 -0.0078125 6.359375 -0.03125 C 6.085938 -0.0625 5.703125 -0.078125 5.203125 -0.078125 C 4.722656 -0.078125 4.335938 -0.0625 4.046875 -0.03125 C 3.765625 -0.0078125 3.460938 0.0195312 3.140625 0.0625 C 2.816406 0.101562 2.378906 0.125 1.828125 0.125 Z M 1.828125 0.125 "/></g></g></g><g fill="#000000" fill-opacity="1"><g transform="translate(129.330726, 288.083469)"><g><path d="M 1.75 0.125 C 1.113281 0.125 0.796875 -0.0234375 0.796875 -0.328125 C 0.796875 -0.554688 0.898438 -0.703125 1.109375 -0.765625 C 1.316406 -0.835938 1.53125 -0.914062 1.75 -1 C 2.164062 -1.132812 2.566406 -1.3125 2.953125 -1.53125 C 3.335938 -1.757812 3.53125 -2.148438 3.53125 -2.703125 L 3.53125 -23.546875 C 3.53125 -24.515625 3.390625 -25.21875 3.109375 -25.65625 C 2.835938 -26.101562 2.351562 -26.410156 1.65625 -26.578125 C 1.414062 -26.628906 1.296875 -26.8125 1.296875 -27.125 C 1.296875 -27.394531 1.40625 -27.5625 1.625 -27.625 C 2.34375 -27.789062 2.960938 -27.960938 3.484375 -28.140625 C 4.015625 -28.316406 4.492188 -28.492188 4.921875 -28.671875 C 5.359375 -28.859375 5.785156 -29.035156 6.203125 -29.203125 C 6.367188 -29.285156 6.492188 -29.328125 6.578125 -29.328125 C 6.660156 -29.328125 6.722656 -29.296875 6.765625 -29.234375 C 6.804688 -29.179688 6.828125 -29.085938 6.828125 -28.953125 C 6.828125 -28.671875 6.765625 -28.113281 6.640625 -27.28125 C 6.515625 -26.445312 6.453125 -25.144531 6.453125 -23.375 L 6.453125 -9.734375 C 6.453125 -9.484375 6.519531 -9.359375 6.65625 -9.359375 C 6.820312 -9.359375 7.035156 -9.425781 7.296875 -9.5625 C 7.554688 -9.707031 7.84375 -9.914062 8.15625 -10.1875 C 9.289062 -11.15625 10.238281 -12.035156 11 -12.828125 C 11.757812 -13.617188 12.28125 -14.164062 12.5625 -14.46875 C 12.695312 -14.632812 12.789062 -14.765625 12.84375 -14.859375 C 12.90625 -14.960938 12.9375 -15.039062 12.9375 -15.09375 C 12.9375 -15.238281 12.816406 -15.363281 12.578125 -15.46875 C 12.347656 -15.582031 12.109375 -15.664062 11.859375 -15.71875 C 11.523438 -15.800781 11.359375 -15.941406 11.359375 -16.140625 C 11.359375 -16.273438 11.441406 -16.390625 11.609375 -16.484375 C 11.773438 -16.585938 11.992188 -16.640625 12.265625 -16.640625 L 14.3125 -16.640625 C 14.75 -16.640625 15.207031 -16.679688 15.6875 -16.765625 C 16.175781 -16.847656 16.632812 -16.929688 17.0625 -17.015625 C 17.5 -17.097656 17.84375 -17.140625 18.09375 -17.140625 C 18.476562 -17.140625 18.671875 -17 18.671875 -16.71875 C 18.671875 -16.550781 18.570312 -16.40625 18.375 -16.28125 C 18.1875 -16.15625 17.941406 -16.050781 17.640625 -15.96875 C 17.109375 -15.832031 16.613281 -15.640625 16.15625 -15.390625 C 15.695312 -15.140625 15.273438 -14.90625 14.890625 -14.6875 C 14.722656 -14.570312 14.34375 -14.269531 13.75 -13.78125 C 13.15625 -13.300781 12.472656 -12.738281 11.703125 -12.09375 C 10.941406 -11.457031 10.226562 -10.851562 9.5625 -10.28125 C 9.394531 -10.113281 9.3125 -9.972656 9.3125 -9.859375 C 9.3125 -9.828125 9.328125 -9.785156 9.359375 -9.734375 C 9.390625 -9.679688 9.414062 -9.625 9.4375 -9.5625 C 10.15625 -8.675781 10.929688 -7.773438 11.765625 -6.859375 C 12.597656 -5.941406 13.367188 -5.132812 14.078125 -4.4375 C 14.785156 -3.75 15.28125 -3.269531 15.5625 -3 C 16.03125 -2.550781 16.5625 -2.15625 17.15625 -1.8125 C 17.75 -1.46875 18.253906 -1.222656 18.671875 -1.078125 C 18.984375 -0.972656 19.269531 -0.878906 19.53125 -0.796875 C 19.789062 -0.710938 19.921875 -0.554688 19.921875 -0.328125 C 19.921875 -0.0234375 19.644531 0.125 19.09375 0.125 C 18.007812 0.125 16.796875 0.101562 15.453125 0.0625 C 14.109375 0.0195312 12.726562 0 11.3125 0 C 10.8125 0 10.5625 -0.125 10.5625 -0.375 C 10.5625 -0.539062 10.628906 -0.675781 10.765625 -0.78125 C 10.910156 -0.894531 11.078125 -0.984375 11.265625 -1.046875 C 11.578125 -1.148438 11.84375 -1.269531 12.0625 -1.40625 C 12.28125 -1.550781 12.390625 -1.75 12.390625 -2 C 12.390625 -2.082031 12.363281 -2.171875 12.3125 -2.265625 C 12.257812 -2.359375 12.191406 -2.460938 12.109375 -2.578125 L 7.078125 -8.28125 C 6.910156 -8.46875 6.769531 -8.5625 6.65625 -8.5625 C 6.519531 -8.5625 6.453125 -8.46875 6.453125 -8.28125 C 6.421875 -7.882812 6.40625 -7.457031 6.40625 -7 C 6.40625 -6.550781 6.40625 -6.085938 6.40625 -5.609375 C 6.40625 -5.140625 6.40625 -4.65625 6.40625 -4.15625 C 6.40625 -3.65625 6.421875 -3.171875 6.453125 -2.703125 C 6.453125 -2.148438 6.585938 -1.757812 6.859375 -1.53125 C 7.140625 -1.3125 7.488281 -1.132812 7.90625 -1 C 8.125 -0.914062 8.335938 -0.835938 8.546875 -0.765625 C 8.753906 -0.703125 8.859375 -0.554688 8.859375 -0.328125 C 8.859375 -0.140625 8.722656 -0.0195312 8.453125 0.03125 C 8.191406 0.09375 8.007812 0.125 7.90625 0.125 C 7.375 0.125 6.984375 0.101562 6.734375 0.0625 C 6.484375 0.0195312 6.253906 -0.0078125 6.046875 -0.03125 C 5.835938 -0.0625 5.484375 -0.078125 4.984375 -0.078125 C 4.515625 -0.078125 4.140625 -0.0625 3.859375 -0.03125 C 3.585938 -0.0078125 3.304688 0.0195312 3.015625 0.0625 C 2.722656 0.101562 2.300781 0.125 1.75 0.125 Z M 1.75 0.125 "/></g></g></g><g fill="#000000" fill-opacity="1"><g transform="translate(151.584002, 288.083469)"><g/></g></g><g fill="#000000" fill-opacity="1"><g transform="translate(162.648787, 288.083469)"><g><path d="M 2.75 0.203125 C 2.382812 0.203125 2.085938 0.164062 1.859375 0.09375 C 1.640625 0.03125 1.53125 -0.0820312 1.53125 -0.25 C 1.53125 -0.582031 1.988281 -0.832031 2.90625 -1 C 3.957031 -1.195312 4.734375 -1.515625 5.234375 -1.953125 C 5.734375 -2.398438 5.984375 -3.125 5.984375 -4.125 L 5.984375 -22.828125 C 5.984375 -23.828125 5.78125 -24.535156 5.375 -24.953125 C 4.976562 -25.367188 4.253906 -25.675781 3.203125 -25.875 C 2.734375 -25.957031 2.382812 -26.066406 2.15625 -26.203125 C 1.9375 -26.335938 1.828125 -26.503906 1.828125 -26.703125 C 1.828125 -26.867188 1.9375 -26.984375 2.15625 -27.046875 C 2.382812 -27.117188 2.675781 -27.15625 3.03125 -27.15625 C 4.082031 -27.15625 4.976562 -27.140625 5.71875 -27.109375 C 6.457031 -27.085938 7.175781 -27.066406 7.875 -27.046875 C 8.582031 -27.035156 9.425781 -27.03125 10.40625 -27.03125 C 11.3125 -27.03125 12.269531 -27.035156 13.28125 -27.046875 C 14.300781 -27.066406 15.238281 -27.078125 16.09375 -27.078125 C 17.039062 -27.109375 17.835938 -27.128906 18.484375 -27.140625 C 19.140625 -27.148438 19.519531 -27.15625 19.625 -27.15625 C 19.769531 -27.15625 19.925781 -27.128906 20.09375 -27.078125 C 20.257812 -27.023438 20.351562 -26.925781 20.375 -26.78125 C 20.519531 -26.007812 20.660156 -25.238281 20.796875 -24.46875 C 20.929688 -23.707031 21 -23.050781 21 -22.5 C 21 -22.25 20.9375 -22.082031 20.8125 -22 C 20.6875 -21.914062 20.554688 -21.875 20.421875 -21.875 C 20.285156 -21.875 20.1875 -21.910156 20.125 -21.984375 C 20.070312 -22.054688 20.019531 -22.160156 19.96875 -22.296875 C 19.820312 -22.765625 19.679688 -23.210938 19.546875 -23.640625 C 19.410156 -24.078125 19.242188 -24.390625 19.046875 -24.578125 C 18.660156 -25.023438 18.226562 -25.320312 17.75 -25.46875 C 17.28125 -25.625 16.785156 -25.703125 16.265625 -25.703125 L 10.8125 -25.703125 C 10.59375 -25.703125 10.285156 -25.578125 9.890625 -25.328125 C 9.503906 -25.078125 9.3125 -24.757812 9.3125 -24.375 L 9.3125 -15.5625 C 9.3125 -15.3125 9.390625 -15.09375 9.546875 -14.90625 C 9.703125 -14.726562 9.875 -14.640625 10.0625 -14.640625 L 14.1875 -14.640625 C 14.988281 -14.640625 15.539062 -14.785156 15.84375 -15.078125 C 16.15625 -15.367188 16.40625 -15.898438 16.59375 -16.671875 C 16.757812 -17.285156 17.007812 -17.59375 17.34375 -17.59375 C 17.457031 -17.59375 17.578125 -17.535156 17.703125 -17.421875 C 17.828125 -17.316406 17.890625 -17.148438 17.890625 -16.921875 C 17.890625 -16.816406 17.878906 -16.566406 17.859375 -16.171875 C 17.847656 -15.785156 17.828125 -15.382812 17.796875 -14.96875 C 17.773438 -14.550781 17.765625 -14.234375 17.765625 -14.015625 C 17.765625 -13.734375 17.769531 -13.363281 17.78125 -12.90625 C 17.789062 -12.457031 17.800781 -12.023438 17.8125 -11.609375 C 17.832031 -11.191406 17.84375 -10.925781 17.84375 -10.8125 C 17.84375 -10.613281 17.820312 -10.445312 17.78125 -10.3125 C 17.738281 -10.175781 17.632812 -10.109375 17.46875 -10.109375 C 17.050781 -10.109375 16.734375 -10.550781 16.515625 -11.4375 C 16.347656 -12.070312 16.125 -12.539062 15.84375 -12.84375 C 15.570312 -13.15625 15.15625 -13.3125 14.59375 -13.3125 L 10.734375 -13.3125 C 10.265625 -13.3125 9.910156 -13.25 9.671875 -13.125 C 9.429688 -13 9.3125 -12.703125 9.3125 -12.234375 L 9.3125 -4.25 C 9.3125 -3.1875 9.53125 -2.453125 9.96875 -2.046875 C 10.414062 -1.648438 11.113281 -1.453125 12.0625 -1.453125 L 15.140625 -1.453125 C 16.023438 -1.453125 16.765625 -1.5 17.359375 -1.59375 C 17.960938 -1.695312 18.484375 -1.882812 18.921875 -2.15625 C 19.367188 -2.46875 19.765625 -2.875 20.109375 -3.375 C 20.453125 -3.875 20.847656 -4.535156 21.296875 -5.359375 C 21.378906 -5.523438 21.472656 -5.664062 21.578125 -5.78125 C 21.691406 -5.894531 21.820312 -5.9375 21.96875 -5.90625 C 22.101562 -5.875 22.210938 -5.8125 22.296875 -5.71875 C 22.378906 -5.625 22.421875 -5.492188 22.421875 -5.328125 C 22.421875 -5.078125 22.347656 -4.640625 22.203125 -4.015625 C 22.066406 -3.390625 21.894531 -2.742188 21.6875 -2.078125 C 21.476562 -1.410156 21.289062 -0.882812 21.125 -0.5 C 21.039062 -0.300781 20.960938 -0.132812 20.890625 0 C 20.828125 0.132812 20.710938 0.203125 20.546875 0.203125 C 19.210938 0.203125 17.976562 0.1875 16.84375 0.15625 C 15.707031 0.132812 14.625 0.109375 13.59375 0.078125 C 12.570312 0.0546875 11.566406 0.03125 10.578125 0 C 9.597656 -0.03125 8.582031 -0.046875 7.53125 -0.046875 C 6.914062 -0.046875 6.382812 -0.0234375 5.9375 0.015625 C 5.5 0.0546875 5.046875 0.0976562 4.578125 0.140625 C 4.109375 0.179688 3.5 0.203125 2.75 0.203125 Z M 2.75 0.203125 "/></g></g></g><g fill="#000000" fill-opacity="1"><g transform="translate(188.853401, 288.083469)"><g><path d="M 15.21875 0.796875 C 15.03125 0.796875 14.9375 0.679688 14.9375 0.453125 C 14.9375 0.179688 14.96875 -0.222656 15.03125 -0.765625 C 15.101562 -1.304688 15.140625 -1.757812 15.140625 -2.125 C 15.140625 -2.175781 15.140625 -2.222656 15.140625 -2.265625 C 15.140625 -2.304688 15.140625 -2.34375 15.140625 -2.375 C 14.054688 -1.320312 12.96875 -0.566406 11.875 -0.109375 C 10.78125 0.347656 9.582031 0.578125 8.28125 0.578125 C 7.394531 0.578125 6.585938 0.390625 5.859375 0.015625 C 5.140625 -0.359375 4.570312 -0.910156 4.15625 -1.640625 C 3.738281 -2.378906 3.53125 -3.289062 3.53125 -4.375 L 3.53125 -12.8125 C 3.53125 -13.414062 3.390625 -13.898438 3.109375 -14.265625 C 2.835938 -14.628906 2.382812 -14.9375 1.75 -15.1875 C 1.601562 -15.238281 1.472656 -15.304688 1.359375 -15.390625 C 1.253906 -15.472656 1.203125 -15.625 1.203125 -15.84375 C 1.203125 -16.09375 1.265625 -16.257812 1.390625 -16.34375 C 1.515625 -16.425781 1.660156 -16.484375 1.828125 -16.515625 C 2.773438 -16.566406 3.503906 -16.640625 4.015625 -16.734375 C 4.523438 -16.835938 5.171875 -16.984375 5.953125 -17.171875 C 6.035156 -17.203125 6.097656 -17.21875 6.140625 -17.21875 C 6.179688 -17.21875 6.226562 -17.21875 6.28125 -17.21875 C 6.582031 -17.21875 6.722656 -17.023438 6.703125 -16.640625 C 6.617188 -16.003906 6.554688 -15.46875 6.515625 -15.03125 C 6.472656 -14.601562 6.453125 -14.070312 6.453125 -13.4375 L 6.453125 -5.328125 C 6.453125 -4.660156 6.613281 -4.039062 6.9375 -3.46875 C 7.269531 -2.90625 7.707031 -2.441406 8.25 -2.078125 C 8.789062 -1.710938 9.351562 -1.53125 9.9375 -1.53125 C 10.65625 -1.53125 11.285156 -1.570312 11.828125 -1.65625 C 12.367188 -1.738281 12.90625 -1.976562 13.4375 -2.375 C 13.738281 -2.59375 14.125 -2.953125 14.59375 -3.453125 C 15.070312 -3.953125 15.3125 -4.628906 15.3125 -5.484375 L 15.3125 -13.109375 C 15.3125 -13.679688 15.132812 -14.113281 14.78125 -14.40625 C 14.4375 -14.695312 14.039062 -14.898438 13.59375 -15.015625 C 13.15625 -15.128906 12.796875 -15.1875 12.515625 -15.1875 C 12.265625 -15.1875 12.054688 -15.234375 11.890625 -15.328125 C 11.722656 -15.421875 11.640625 -15.609375 11.640625 -15.890625 C 11.640625 -16.140625 11.726562 -16.304688 11.90625 -16.390625 C 12.09375 -16.472656 12.296875 -16.515625 12.515625 -16.515625 C 13.378906 -16.535156 14.09375 -16.566406 14.65625 -16.609375 C 15.226562 -16.648438 15.742188 -16.71875 16.203125 -16.8125 C 16.660156 -16.914062 17.140625 -17.035156 17.640625 -17.171875 C 17.691406 -17.203125 17.757812 -17.222656 17.84375 -17.234375 C 17.925781 -17.253906 17.992188 -17.265625 18.046875 -17.265625 C 18.410156 -17.265625 18.59375 -17.109375 18.59375 -16.796875 C 18.59375 -16.773438 18.582031 -16.726562 18.5625 -16.65625 C 18.550781 -16.582031 18.535156 -16.503906 18.515625 -16.421875 C 18.484375 -16.347656 18.445312 -16.113281 18.40625 -15.71875 C 18.363281 -15.332031 18.320312 -14.929688 18.28125 -14.515625 C 18.238281 -14.097656 18.21875 -13.78125 18.21875 -13.5625 L 18.21875 -3.953125 C 18.21875 -3.203125 18.289062 -2.664062 18.4375 -2.34375 C 18.59375 -2.03125 18.769531 -1.875 18.96875 -1.875 C 19.1875 -1.875 19.507812 -1.894531 19.9375 -1.9375 C 20.375 -1.976562 20.6875 -2 20.875 -2 C 21.019531 -2 21.160156 -1.96875 21.296875 -1.90625 C 21.429688 -1.851562 21.5 -1.703125 21.5 -1.453125 C 21.5 -1.234375 21.441406 -1.085938 21.328125 -1.015625 C 21.222656 -0.953125 21.085938 -0.90625 20.921875 -0.875 C 19.835938 -0.738281 18.90625 -0.53125 18.125 -0.25 C 17.351562 0.03125 16.664062 0.296875 16.0625 0.546875 C 15.976562 0.566406 15.851562 0.613281 15.6875 0.6875 C 15.519531 0.757812 15.363281 0.796875 15.21875 0.796875 Z M 15.21875 0.796875 "/></g></g></g><g fill="#000000" fill-opacity="1"><g transform="translate(213.51907, 288.083469)"><g><path d="M 2.03125 0.125 C 1.757812 0.125 1.550781 0.0859375 1.40625 0.015625 C 1.269531 -0.046875 1.203125 -0.160156 1.203125 -0.328125 C 1.203125 -0.554688 1.285156 -0.703125 1.453125 -0.765625 C 1.617188 -0.835938 1.851562 -0.914062 2.15625 -1 C 2.6875 -1.132812 3.082031 -1.332031 3.34375 -1.59375 C 3.613281 -1.863281 3.75 -2.191406 3.75 -2.578125 L 3.75 -11.515625 C 3.75 -12.265625 3.632812 -12.914062 3.40625 -13.46875 C 3.1875 -14.03125 2.726562 -14.378906 2.03125 -14.515625 C 1.925781 -14.546875 1.832031 -14.613281 1.75 -14.71875 C 1.664062 -14.832031 1.625 -14.945312 1.625 -15.0625 C 1.625 -15.332031 1.75 -15.5 2 -15.5625 C 2.71875 -15.78125 3.472656 -16.101562 4.265625 -16.53125 C 5.054688 -16.957031 5.671875 -17.3125 6.109375 -17.59375 C 6.273438 -17.707031 6.40625 -17.785156 6.5 -17.828125 C 6.601562 -17.867188 6.679688 -17.890625 6.734375 -17.890625 C 6.878906 -17.890625 6.953125 -17.789062 6.953125 -17.59375 C 6.953125 -17.507812 6.941406 -17.300781 6.921875 -16.96875 C 6.910156 -16.632812 6.894531 -16.242188 6.875 -15.796875 C 6.863281 -15.359375 6.847656 -14.914062 6.828125 -14.46875 C 6.828125 -14.414062 6.851562 -14.390625 6.90625 -14.390625 C 7.34375 -14.941406 7.832031 -15.425781 8.375 -15.84375 C 8.914062 -16.257812 9.46875 -16.59375 10.03125 -16.84375 C 10.601562 -17.09375 11.15625 -17.21875 11.6875 -17.21875 C 12.269531 -17.21875 12.75 -17.09375 13.125 -16.84375 C 13.5 -16.59375 13.6875 -16.273438 13.6875 -15.890625 C 13.6875 -15.609375 13.609375 -15.300781 13.453125 -14.96875 C 13.304688 -14.632812 13.109375 -14.34375 12.859375 -14.09375 C 12.609375 -13.84375 12.34375 -13.71875 12.0625 -13.71875 C 11.894531 -13.71875 11.710938 -13.753906 11.515625 -13.828125 C 11.328125 -13.898438 11.117188 -13.988281 10.890625 -14.09375 C 10.671875 -14.175781 10.453125 -14.257812 10.234375 -14.34375 C 10.015625 -14.425781 9.789062 -14.46875 9.5625 -14.46875 C 8.894531 -14.46875 8.25 -14.234375 7.625 -13.765625 C 7.007812 -13.296875 6.703125 -12.367188 6.703125 -10.984375 L 6.703125 -2.578125 C 6.703125 -2.210938 6.894531 -1.910156 7.28125 -1.671875 C 7.664062 -1.441406 8.207031 -1.21875 8.90625 -1 C 9.207031 -0.914062 9.441406 -0.832031 9.609375 -0.75 C 9.773438 -0.664062 9.859375 -0.523438 9.859375 -0.328125 C 9.859375 -0.0234375 9.582031 0.125 9.03125 0.125 C 8.195312 0.125 7.5625 0.0859375 7.125 0.015625 C 6.695312 -0.046875 6.125 -0.078125 5.40625 -0.078125 C 4.9375 -0.078125 4.554688 -0.0625 4.265625 -0.03125 C 3.972656 -0.0078125 3.664062 0.0195312 3.34375 0.0625 C 3.03125 0.101562 2.59375 0.125 2.03125 0.125 Z M 2.03125 0.125 "/></g></g></g><g fill="#000000" fill-opacity="1"><g transform="translate(230.157304, 288.083469)"><g><path d="M 9.734375 0.578125 C 8.179688 0.578125 6.78125 0.21875 5.53125 -0.5 C 4.28125 -1.21875 3.285156 -2.207031 2.546875 -3.46875 C 1.816406 -4.726562 1.453125 -6.164062 1.453125 -7.78125 C 1.453125 -8.945312 1.679688 -10.082031 2.140625 -11.1875 C 2.597656 -12.300781 3.242188 -13.3125 4.078125 -14.21875 C 4.910156 -15.132812 5.878906 -15.863281 6.984375 -16.40625 C 8.097656 -16.945312 9.289062 -17.21875 10.5625 -17.21875 C 12.175781 -17.21875 13.625 -16.828125 14.90625 -16.046875 C 16.195312 -15.273438 17.222656 -14.257812 17.984375 -13 C 18.753906 -11.738281 19.140625 -10.359375 19.140625 -8.859375 C 19.140625 -7.253906 18.785156 -5.726562 18.078125 -4.28125 C 17.367188 -2.84375 16.320312 -1.671875 14.9375 -0.765625 C 13.550781 0.128906 11.816406 0.578125 9.734375 0.578125 Z M 10.609375 -0.671875 C 11.546875 -0.671875 12.390625 -0.847656 13.140625 -1.203125 C 13.890625 -1.566406 14.472656 -2.148438 14.890625 -2.953125 C 15.222656 -3.585938 15.441406 -4.363281 15.546875 -5.28125 C 15.660156 -6.195312 15.71875 -7.054688 15.71875 -7.859375 C 15.71875 -9.191406 15.472656 -10.472656 14.984375 -11.703125 C 14.503906 -12.941406 13.828125 -13.957031 12.953125 -14.75 C 12.078125 -15.539062 11.046875 -15.9375 9.859375 -15.9375 C 9.109375 -15.9375 8.4375 -15.816406 7.84375 -15.578125 C 7.25 -15.335938 6.703125 -14.898438 6.203125 -14.265625 C 5.640625 -13.578125 5.273438 -12.734375 5.109375 -11.734375 C 4.941406 -10.734375 4.859375 -9.734375 4.859375 -8.734375 C 4.859375 -7.378906 5.109375 -6.082031 5.609375 -4.84375 C 6.109375 -3.613281 6.785156 -2.609375 7.640625 -1.828125 C 8.503906 -1.054688 9.492188 -0.671875 10.609375 -0.671875 Z M 10.609375 -0.671875 "/></g></g></g><g fill="#000000" fill-opacity="1"><g transform="translate(253.492009, 288.083469)"><g><path d="M 1.65625 11.859375 C 1.519531 11.859375 1.34375 11.835938 1.125 11.796875 C 0.90625 11.753906 0.796875 11.648438 0.796875 11.484375 C 0.796875 11.253906 0.898438 11.09375 1.109375 11 C 1.316406 10.90625 1.53125 10.816406 1.75 10.734375 C 2.164062 10.585938 2.566406 10.425781 2.953125 10.25 C 3.335938 10.070312 3.53125 9.707031 3.53125 9.15625 L 3.53125 -11.9375 C 3.53125 -12.15625 3.46875 -12.484375 3.34375 -12.921875 C 3.21875 -13.367188 3.015625 -13.800781 2.734375 -14.21875 C 2.460938 -14.632812 2.09375 -14.882812 1.625 -14.96875 C 1.507812 -15 1.425781 -15.066406 1.375 -15.171875 C 1.320312 -15.285156 1.296875 -15.398438 1.296875 -15.515625 C 1.296875 -15.648438 1.320312 -15.757812 1.375 -15.84375 C 1.425781 -15.925781 1.492188 -15.984375 1.578125 -16.015625 C 2.628906 -16.265625 3.53125 -16.535156 4.28125 -16.828125 C 5.03125 -17.117188 5.738281 -17.398438 6.40625 -17.671875 C 6.4375 -17.671875 6.453125 -17.675781 6.453125 -17.6875 C 6.453125 -17.707031 6.460938 -17.71875 6.484375 -17.71875 C 6.546875 -17.71875 6.601562 -17.675781 6.65625 -17.59375 C 6.707031 -17.507812 6.734375 -17.425781 6.734375 -17.34375 C 6.734375 -17.09375 6.695312 -16.695312 6.625 -16.15625 C 6.5625 -15.613281 6.53125 -15.175781 6.53125 -14.84375 C 6.53125 -14.625 6.546875 -14.5 6.578125 -14.46875 C 6.847656 -14.75 7.347656 -15.101562 8.078125 -15.53125 C 8.816406 -15.96875 9.65625 -16.359375 10.59375 -16.703125 C 11.539062 -17.046875 12.445312 -17.21875 13.3125 -17.21875 C 14.75 -17.21875 15.972656 -16.835938 16.984375 -16.078125 C 18.003906 -15.316406 18.78125 -14.332031 19.3125 -13.125 C 19.851562 -11.914062 20.125 -10.660156 20.125 -9.359375 C 20.125 -8.109375 19.890625 -6.894531 19.421875 -5.71875 C 18.953125 -4.539062 18.285156 -3.476562 17.421875 -2.53125 C 16.566406 -1.59375 15.570312 -0.835938 14.4375 -0.265625 C 13.300781 0.296875 12.078125 0.578125 10.765625 0.578125 C 10.378906 0.578125 9.914062 0.515625 9.375 0.390625 C 8.832031 0.265625 8.304688 0.109375 7.796875 -0.078125 C 7.285156 -0.273438 6.890625 -0.5 6.609375 -0.75 C 6.585938 -0.75 6.5625 -0.585938 6.53125 -0.265625 C 6.5 0.046875 6.476562 0.375 6.46875 0.71875 C 6.457031 1.070312 6.453125 1.289062 6.453125 1.375 L 6.453125 9.15625 C 6.453125 9.507812 6.597656 9.789062 6.890625 10 C 7.179688 10.207031 7.507812 10.359375 7.875 10.453125 C 8.25 10.554688 8.578125 10.648438 8.859375 10.734375 C 9.078125 10.816406 9.289062 10.90625 9.5 11 C 9.707031 11.09375 9.8125 11.253906 9.8125 11.484375 C 9.8125 11.648438 9.703125 11.753906 9.484375 11.796875 C 9.265625 11.835938 9.070312 11.859375 8.90625 11.859375 C 8.09375 11.859375 7.414062 11.820312 6.875 11.75 C 6.34375 11.675781 5.710938 11.640625 4.984375 11.640625 C 4.515625 11.640625 4.132812 11.65625 3.84375 11.6875 C 3.550781 11.71875 3.253906 11.753906 2.953125 11.796875 C 2.648438 11.835938 2.21875 11.859375 1.65625 11.859375 Z M 11.390625 -0.703125 C 11.804688 -0.703125 12.3125 -0.828125 12.90625 -1.078125 C 13.507812 -1.328125 14.109375 -1.726562 14.703125 -2.28125 C 15.296875 -2.84375 15.789062 -3.59375 16.1875 -4.53125 C 16.59375 -5.476562 16.796875 -6.644531 16.796875 -8.03125 C 16.796875 -9.632812 16.585938 -10.921875 16.171875 -11.890625 C 15.765625 -12.867188 15.253906 -13.601562 14.640625 -14.09375 C 14.023438 -14.59375 13.398438 -14.925781 12.765625 -15.09375 C 12.128906 -15.257812 11.585938 -15.34375 11.140625 -15.34375 C 10.484375 -15.34375 9.800781 -15.203125 9.09375 -14.921875 C 8.382812 -14.648438 7.785156 -14.335938 7.296875 -13.984375 C 6.816406 -13.640625 6.578125 -13.375 6.578125 -13.1875 C 6.578125 -12.570312 6.566406 -11.953125 6.546875 -11.328125 C 6.535156 -10.710938 6.519531 -10.113281 6.5 -9.53125 C 6.488281 -8.945312 6.476562 -8.425781 6.46875 -7.96875 C 6.457031 -7.507812 6.453125 -7.15625 6.453125 -6.90625 C 6.453125 -5.789062 6.707031 -4.757812 7.21875 -3.8125 C 7.726562 -2.875 8.363281 -2.117188 9.125 -1.546875 C 9.894531 -0.984375 10.648438 -0.703125 11.390625 -0.703125 Z M 11.390625 -0.703125 "/></g></g></g><g fill="#000000" fill-opacity="1"><g transform="translate(277.824947, 288.083469)"><g><path d="M 8.859375 0.625 C 7.335938 0.625 6.003906 0.25 4.859375 -0.5 C 3.722656 -1.25 2.835938 -2.304688 2.203125 -3.671875 C 1.566406 -5.046875 1.25 -6.632812 1.25 -8.4375 C 1.25 -10.050781 1.613281 -11.515625 2.34375 -12.828125 C 3.082031 -14.148438 4.0625 -15.210938 5.28125 -16.015625 C 6.5 -16.816406 7.832031 -17.21875 9.28125 -17.21875 C 10.382812 -17.21875 11.363281 -16.992188 12.21875 -16.546875 C 13.082031 -16.109375 13.753906 -15.492188 14.234375 -14.703125 C 14.722656 -13.910156 14.96875 -13.003906 14.96875 -11.984375 C 14.96875 -11.117188 14.550781 -10.6875 13.71875 -10.6875 L 4.953125 -10.6875 C 4.566406 -10.6875 4.296875 -10.582031 4.140625 -10.375 C 3.984375 -10.164062 3.90625 -9.757812 3.90625 -9.15625 C 3.90625 -7.820312 4.195312 -6.609375 4.78125 -5.515625 C 5.363281 -4.421875 6.140625 -3.546875 7.109375 -2.890625 C 8.078125 -2.234375 9.144531 -1.90625 10.3125 -1.90625 C 11.144531 -1.90625 11.898438 -2.066406 12.578125 -2.390625 C 13.253906 -2.710938 13.859375 -3.175781 14.390625 -3.78125 C 14.503906 -3.925781 14.585938 -4.019531 14.640625 -4.0625 C 14.691406 -4.101562 14.757812 -4.125 14.84375 -4.125 C 15.070312 -4.125 15.1875 -3.984375 15.1875 -3.703125 C 15.1875 -3.171875 14.9375 -2.585938 14.4375 -1.953125 C 14.019531 -1.429688 13.519531 -0.972656 12.9375 -0.578125 C 12.351562 -0.191406 11.710938 0.101562 11.015625 0.3125 C 10.328125 0.519531 9.609375 0.625 8.859375 0.625 Z M 5.03125 -11.984375 L 8.8125 -11.984375 C 9.476562 -11.984375 10.046875 -11.992188 10.515625 -12.015625 C 10.992188 -12.046875 11.453125 -12.101562 11.890625 -12.1875 C 12.035156 -12.21875 12.128906 -12.304688 12.171875 -12.453125 C 12.210938 -12.609375 12.234375 -12.828125 12.234375 -13.109375 C 12.234375 -13.910156 11.878906 -14.59375 11.171875 -15.15625 C 10.460938 -15.726562 9.625 -16.015625 8.65625 -16.015625 C 8.007812 -16.015625 7.367188 -15.828125 6.734375 -15.453125 C 6.097656 -15.078125 5.570312 -14.613281 5.15625 -14.0625 C 4.738281 -13.507812 4.53125 -12.953125 4.53125 -12.390625 C 4.53125 -12.117188 4.695312 -11.984375 5.03125 -11.984375 Z M 5.03125 -11.984375 "/></g></g></g><g fill="#000000" fill-opacity="1"><g transform="translate(296.792396, 288.083469)"><g><path d="M 4.859375 0.578125 C 4.367188 0.578125 3.863281 0.382812 3.34375 0 C 2.832031 -0.382812 2.398438 -0.851562 2.046875 -1.40625 C 1.703125 -1.96875 1.53125 -2.5 1.53125 -3 C 1.53125 -3.882812 1.765625 -4.578125 2.234375 -5.078125 C 2.710938 -5.578125 3.460938 -6.035156 4.484375 -6.453125 L 8.734375 -8.1875 C 9.285156 -8.414062 9.609375 -8.613281 9.703125 -8.78125 C 9.804688 -8.945312 9.875 -9.304688 9.90625 -9.859375 L 9.984375 -12.515625 C 10.015625 -13.234375 9.8125 -13.859375 9.375 -14.390625 C 8.945312 -14.921875 8.332031 -15.1875 7.53125 -15.1875 C 7.113281 -15.1875 6.695312 -15.113281 6.28125 -14.96875 C 5.863281 -14.832031 5.515625 -14.65625 5.234375 -14.4375 C 5.066406 -14.320312 4.957031 -14.148438 4.90625 -13.921875 C 4.851562 -13.703125 4.828125 -13.472656 4.828125 -13.234375 C 4.828125 -13.117188 4.832031 -12.988281 4.84375 -12.84375 C 4.851562 -12.707031 4.859375 -12.585938 4.859375 -12.484375 C 4.859375 -12.335938 4.6875 -12.144531 4.34375 -11.90625 C 4 -11.675781 3.609375 -11.46875 3.171875 -11.28125 C 2.742188 -11.101562 2.394531 -11.015625 2.125 -11.015625 C 1.976562 -11.015625 1.863281 -11.050781 1.78125 -11.125 C 1.695312 -11.195312 1.65625 -11.285156 1.65625 -11.390625 C 1.65625 -11.835938 1.800781 -12.316406 2.09375 -12.828125 C 2.382812 -13.335938 2.796875 -13.816406 3.328125 -14.265625 C 3.960938 -14.847656 4.65625 -15.359375 5.40625 -15.796875 C 6.15625 -16.242188 6.890625 -16.59375 7.609375 -16.84375 C 8.328125 -17.09375 8.96875 -17.21875 9.53125 -17.21875 C 10.519531 -17.21875 11.34375 -16.863281 12 -16.15625 C 12.65625 -15.445312 12.96875 -14.566406 12.9375 -13.515625 L 12.734375 -3.53125 C 12.703125 -2.945312 12.832031 -2.472656 13.125 -2.109375 C 13.414062 -1.753906 13.78125 -1.578125 14.21875 -1.578125 C 14.914062 -1.578125 15.429688 -1.726562 15.765625 -2.03125 C 15.898438 -2.175781 16.007812 -2.25 16.09375 -2.25 C 16.238281 -2.25 16.347656 -2.207031 16.421875 -2.125 C 16.503906 -2.039062 16.546875 -1.925781 16.546875 -1.78125 C 16.546875 -1.476562 16.394531 -1.175781 16.09375 -0.875 C 15.65625 -0.425781 15.175781 -0.0703125 14.65625 0.1875 C 14.144531 0.445312 13.671875 0.578125 13.234375 0.578125 C 11.953125 0.578125 10.9375 -0.140625 10.1875 -1.578125 L 10.0625 -1.578125 C 9.144531 -0.828125 8.269531 -0.28125 7.4375 0.0625 C 6.613281 0.40625 5.753906 0.578125 4.859375 0.578125 Z M 6.828125 -1.421875 C 7.378906 -1.421875 7.847656 -1.507812 8.234375 -1.6875 C 8.617188 -1.863281 8.96875 -2.101562 9.28125 -2.40625 C 9.414062 -2.550781 9.53125 -2.738281 9.625 -2.96875 C 9.726562 -3.207031 9.789062 -3.59375 9.8125 -4.125 L 9.90625 -6.15625 C 9.925781 -6.457031 9.910156 -6.675781 9.859375 -6.8125 C 9.804688 -6.957031 9.695312 -7.03125 9.53125 -7.03125 C 9.46875 -7.03125 9.367188 -7.015625 9.234375 -6.984375 C 9.097656 -6.960938 8.914062 -6.910156 8.6875 -6.828125 C 7.21875 -6.296875 6.195312 -5.742188 5.625 -5.171875 C 5.0625 -4.609375 4.78125 -4.09375 4.78125 -3.625 C 4.78125 -2.894531 4.992188 -2.34375 5.421875 -1.96875 C 5.859375 -1.601562 6.328125 -1.421875 6.828125 -1.421875 Z M 6.828125 -1.421875 "/></g></g></g><g fill="#000000" fill-opacity="1"><g transform="translate(316.134171, 288.083469)"><g><path d="M 1.828125 0.125 C 1.578125 0.125 1.375 0.0859375 1.21875 0.015625 C 1.070312 -0.046875 1 -0.160156 1 -0.328125 C 1 -0.554688 1.082031 -0.703125 1.25 -0.765625 C 1.414062 -0.835938 1.648438 -0.914062 1.953125 -1 C 2.367188 -1.113281 2.769531 -1.265625 3.15625 -1.453125 C 3.550781 -1.648438 3.75 -2.023438 3.75 -2.578125 L 3.75 -11.515625 C 3.75 -12.265625 3.671875 -12.898438 3.515625 -13.421875 C 3.359375 -13.953125 2.921875 -14.316406 2.203125 -14.515625 C 2.085938 -14.566406 1.988281 -14.628906 1.90625 -14.703125 C 1.820312 -14.773438 1.78125 -14.894531 1.78125 -15.0625 C 1.78125 -15.363281 1.90625 -15.53125 2.15625 -15.5625 C 3.132812 -15.8125 3.925781 -16.113281 4.53125 -16.46875 C 5.144531 -16.832031 5.742188 -17.234375 6.328125 -17.671875 C 6.410156 -17.734375 6.484375 -17.785156 6.546875 -17.828125 C 6.617188 -17.867188 6.695312 -17.890625 6.78125 -17.890625 C 6.832031 -17.890625 6.878906 -17.859375 6.921875 -17.796875 C 6.960938 -17.742188 6.984375 -17.675781 6.984375 -17.59375 C 6.984375 -17.394531 6.945312 -17 6.875 -16.40625 C 6.8125 -15.8125 6.78125 -15.320312 6.78125 -14.9375 C 6.78125 -14.820312 6.785156 -14.710938 6.796875 -14.609375 C 6.816406 -14.515625 6.835938 -14.457031 6.859375 -14.4375 C 7.828125 -15.351562 8.859375 -16.046875 9.953125 -16.515625 C 11.054688 -16.984375 12.257812 -17.21875 13.5625 -17.21875 C 14.914062 -17.21875 16.035156 -16.660156 16.921875 -15.546875 C 17.816406 -14.441406 18.265625 -13.070312 18.265625 -11.4375 L 18.265625 -2.578125 C 18.265625 -2.023438 18.457031 -1.65625 18.84375 -1.46875 C 19.226562 -1.289062 19.628906 -1.132812 20.046875 -1 C 20.265625 -0.914062 20.476562 -0.820312 20.6875 -0.71875 C 20.894531 -0.625 21 -0.46875 21 -0.25 C 21 -0.0820312 20.898438 0.0195312 20.703125 0.0625 C 20.515625 0.101562 20.335938 0.125 20.171875 0.125 C 19.617188 0.125 19.1875 0.101562 18.875 0.0625 C 18.570312 0.0195312 18.28125 -0.0078125 18 -0.03125 C 17.726562 -0.0625 17.34375 -0.078125 16.84375 -0.078125 C 16.375 -0.078125 15.984375 -0.0625 15.671875 -0.03125 C 15.367188 -0.0078125 15.054688 0.0195312 14.734375 0.0625 C 14.421875 0.101562 13.988281 0.125 13.4375 0.125 C 13.300781 0.125 13.128906 0.101562 12.921875 0.0625 C 12.710938 0.0195312 12.609375 -0.0820312 12.609375 -0.25 C 12.609375 -0.46875 12.710938 -0.625 12.921875 -0.71875 C 13.128906 -0.820312 13.34375 -0.914062 13.5625 -1 C 13.976562 -1.132812 14.378906 -1.289062 14.765625 -1.46875 C 15.148438 -1.65625 15.34375 -2.023438 15.34375 -2.578125 L 15.34375 -11.3125 C 15.34375 -12.53125 15.003906 -13.476562 14.328125 -14.15625 C 13.648438 -14.84375 12.742188 -15.195312 11.609375 -15.21875 C 10.609375 -15.21875 9.734375 -15.054688 8.984375 -14.734375 C 8.234375 -14.421875 7.566406 -14.03125 6.984375 -13.5625 C 6.878906 -13.445312 6.796875 -13.300781 6.734375 -13.125 C 6.679688 -12.945312 6.65625 -12.773438 6.65625 -12.609375 L 6.65625 -2.578125 C 6.65625 -2.023438 6.847656 -1.648438 7.234375 -1.453125 C 7.617188 -1.265625 8.019531 -1.113281 8.4375 -1 C 9.082031 -0.832031 9.40625 -0.609375 9.40625 -0.328125 C 9.40625 -0.160156 9.332031 -0.046875 9.1875 0.015625 C 9.050781 0.0859375 8.84375 0.125 8.5625 0.125 C 8.007812 0.125 7.570312 0.101562 7.25 0.0625 C 6.9375 0.0195312 6.640625 -0.0078125 6.359375 -0.03125 C 6.085938 -0.0625 5.703125 -0.078125 5.203125 -0.078125 C 4.722656 -0.078125 4.335938 -0.0625 4.046875 -0.03125 C 3.765625 -0.0078125 3.460938 0.0195312 3.140625 0.0625 C 2.816406 0.101562 2.378906 0.125 1.828125 0.125 Z M 1.828125 0.125 "/></g></g></g></svg>